  0
SECTION
  2
HEADER
  9
$ACADVER
  1
AC1014
  9
$HANDSEED
  5
FFFF
  9
$MEASUREMENT
 70
     1
  0
ENDSEC
  0
SECTION
  2
TABLES
  0
TABLE
  2
VPORT
  5
8
330
0
100
AcDbSymbolTable
 70
     4
  0
VPORT
  5
2E
330
8
100
AcDbSymbolTableRecord
100
AcDbViewportTableRecord
  2
*ACTIVE
 70
     0
 10
0.0
 20
0.0
 11
1.0
 21
1.0
 12
210.0
 22
148.5
 13
0.0
 23
0.0
 14
10.0
 24
10.0
 15
10.0
 25
10.0
 16
0.0
 26
0.0
 36
1.0
 17
0.0
 27
0.0
 37
0.0
 40
341.0
 41
1.24
 42
50.0
 43
0.0
 44
0.0
 50
0.0
 51
0.0
 71
     0
 72
   100
 73
     1
 74
     3
 75
     0
 76
     0
 77
     0
 78
     0
  0
ENDTAB
  0
TABLE
  2
LTYPE
  5
5
330
0
100
AcDbSymbolTable
 70
     1
  0
LTYPE
  5
14
330
5
100
AcDbSymbolTableRecord
100
AcDbLinetypeTableRecord
  2
BYBLOCK
 70
     0
  3

 72
    65
 73
     0
 40
0.0
  0
LTYPE
  5
15
330
5
100
AcDbSymbolTableRecord
100
AcDbLinetypeTableRecord
  2
BYLAYER
 70
     0
  3

 72
    65
 73
     0
 40
0.0
  0
LTYPE
  5
16
330
5
100
AcDbSymbolTableRecord
100
AcDbLinetypeTableRecord
  2
CONTINUOUS
 70
     0
  3
Solid line
 72
    65
 73
     0
 40
0.0
  0
ENDTAB
  0
TABLE
  2
LAYER
  5
2
100
AcDbSymbolTable
 70
2
  0
LAYER
  5
50
100
AcDbSymbolTableRecord
100
AcDbLayerTableRecord
  2
0
 70
0
  6
CONTINUOUS
  0
LAYER
  5
51
100
AcDbSymbolTableRecord
100
AcDbLayerTableRecord
  2
Layer_1
 70
0
  6
CONTINUOUS
  0
ENDTAB
  0
TABLE
  2
STYLE
  5
3
330
0
100
AcDbSymbolTable
 70
     1
  0
STYLE
  5
11
330
3
100
AcDbSymbolTableRecord
100
AcDbTextStyleTableRecord
  2
STANDARD
 70
     0
 40
0.0
 41
1.0
 50
0.0
 71
     0
 42
2.5
  3
txt
  4

  0
ENDTAB
  0
TABLE
  2
VIEW
  5
6
330
0
100
AcDbSymbolTable
 70
     0
  0
ENDTAB
  0
TABLE
  2
UCS
  5
7
330
0
100
AcDbSymbolTable
 70
     0
  0
ENDTAB
  0
TABLE
  2
APPID
  5
9
330
0
100
AcDbSymbolTable
 70
     2
  0
APPID
  5
12
330
9
100
AcDbSymbolTableRecord
100
AcDbRegAppTableRecord
  2
ACAD
 70
     0
  0
ENDTAB
  0
TABLE
  2
DIMSTYLE
  5
A
330
0
100
AcDbSymbolTable
 70
     1
  0
DIMSTYLE
105
27
330
A
100
AcDbSymbolTableRecord
100
AcDbDimStyleTableRecord
  2
ISO-25
 70
     0
  3

  4

  5

  6

  7

 40
1.0
 41
2.5
 42
0.625
 43
3.75
 44
1.25
 45
0.0
 46
0.0
 47
0.0
 48
0.0
140
2.5
141
2.5
142
0.0
143
0.03937007874016
144
1.0
145
0.0
146
1.0
147
0.625
 71
     0
 72
     0
 73
     0
 74
     0
 75
     0
 76
     0
 77
     1
 78
     8
170
     0
171
     3
172
     1
173
     0
174
     0
175
     0
176
     0
177
     0
178
     0
270
     2
271
     2
272
     2
273
     2
274
     3
340
11
275
     0
280
     0
281
     0
282
     0
283
     0
284
     8
285
     0
286
     0
287
     3
288
     0
  0
ENDTAB
  0
TABLE
  2
BLOCK_RECORD
  5
1
330
0
100
AcDbSymbolTable
 70
     1
  0
BLOCK_RECORD
  5
1F
330
1
100
AcDbSymbolTableRecord
100
AcDbBlockTableRecord
  2
*MODEL_SPACE
  0
BLOCK_RECORD
  5
1B
330
1
100
AcDbSymbolTableRecord
100
AcDbBlockTableRecord
  2
*PAPER_SPACE
  0
ENDTAB
  0
ENDSEC
  0
SECTION
  2
BLOCKS
  0
BLOCK
  5
20
330
1F
100
AcDbEntity
  8
0
100
AcDbBlockBegin
  2
*MODEL_SPACE
 70
     0
 10
0.0
 20
0.0
 30
0.0
  3
*MODEL_SPACE
  1

  0
ENDBLK
  5
21
330
1F
100
AcDbEntity
  8
0
100
AcDbBlockEnd
  0
BLOCK
  5
1C
330
1B
100
AcDbEntity
 67
     1
  8
0
100
AcDbBlockBegin
  2
*PAPER_SPACE
  1

  0
ENDBLK
  5
1D
330
1B
100
AcDbEntity
 67
     1
  8
0
100
AcDbBlockEnd
  0
ENDSEC
  0
SECTION
  2
ENTITIES
  0
SPLINE
  5
100
100
AcDbEntity
  8
Layer_1
 62
7
100
AcDbSpline
 70
8
 71
3
 72
8
 73
4
 74
0
 40
0
 40
0
 40
0
 40
0
 40
1
 40
1
 40
1
 40
1
 10
13.368395
 20
25.685988
 30
0.0
 10
13.322632
 20
26.537696
 30
0.0
 10
13.243188
 20
27.522753
 30
0.0
 10
13.891730
 20
28.160193
 30
0.0
  0
SPLINE
  5
101
100
AcDbEntity
  8
Layer_1
 62
7
100
AcDbSpline
 70
8
 71
3
 72
8
 73
4
 74
0
 40
0
 40
0
 40
0
 40
0
 40
1
 40
1
 40
1
 40
1
 10
13.891730
 20
28.160193
 30
0.0
 10
14.546911
 20
28.767531
 30
0.0
 10
15.458535
 20
28.845175
 30
0.0
 10
16.263941
 20
29.079707
 30
0.0
  0
SPLINE
  5
102
100
AcDbEntity
  8
Layer_1
 62
7
100
AcDbSpline
 70
8
 71
3
 72
8
 73
4
 74
0
 40
0
 40
0
 40
0
 40
0
 40
1
 40
1
 40
1
 40
1
 10
16.263941
 20
29.079707
 30
0.0
 10
18.445835
 20
29.545138
 30
0.0
 10
20.682002
 20
29.525813
 30
0.0
 10
22.894612
 20
29.449193
 30
0.0
  0
SPLINE
  5
103
100
AcDbEntity
  8
Layer_1
 62
7
100
AcDbSpline
 70
8
 71
3
 72
8
 73
4
 74
0
 40
0
 40
0
 40
0
 40
0
 40
1
 40
1
 40
1
 40
1
 10
22.894612
 20
29.449193
 30
0.0
 10
23.864349
 20
29.345267
 30
0.0
 10
24.903036
 20
29.132087
 30
0.0
 10
25.674054
 20
28.449564
 30
0.0
  0
SPLINE
  5
104
100
AcDbEntity
  8
Layer_1
 62
7
100
AcDbSpline
 70
8
 71
3
 72
8
 73
4
 74
0
 40
0
 40
0
 40
0
 40
0
 40
1
 40
1
 40
1
 40
1
 10
25.674054
 20
28.449564
 30
0.0
 10
26.493932
 20
27.526272
 30
0.0
 10
26.270633
 20
26.150132
 30
0.0
 10
26.437733
 20
24.990533
 30
0.0
  0
SPLINE
  5
105
100
AcDbEntity
  8
Layer_1
 62
7
100
AcDbSpline
 70
8
 71
3
 72
8
 73
4
 74
0
 40
0
 40
0
 40
0
 40
0
 40
1
 40
1
 40
1
 40
1
 10
26.437733
 20
24.990533
 30
0.0
 10
26.580869
 20
23.038023
 30
0.0
 10
26.502118
 20
21.076232
 30
0.0
 10
26.543520
 20
19.119633
 30
0.0
  0
SPLINE
  5
106
100
AcDbEntity
  8
Layer_1
 62
7
100
AcDbSpline
 70
8
 71
3
 72
8
 73
4
 74
0
 40
0
 40
0
 40
0
 40
0
 40
1
 40
1
 40
1
 40
1
 10
26.543520
 20
19.119633
 30
0.0
 10
26.503676
 20
17.979059
 30
0.0
 10
26.520862
 20
16.829674
 30
0.0
 10
26.384904
 20
15.697636
 30
0.0
  0
SPLINE
  5
107
100
AcDbEntity
  8
Layer_1
 62
7
100
AcDbSpline
 70
8
 71
3
 72
8
 73
4
 74
0
 40
0
 40
0
 40
0
 40
0
 40
1
 40
1
 40
1
 40
1
 10
26.384904
 20
15.697636
 30
0.0
 10
26.072645
 20
14.204814
 30
0.0
 10
24.717609
 20
13.319959
 30
0.0
 10
23.459711
 20
12.862706
 30
0.0
  0
SPLINE
  5
108
100
AcDbEntity
  8
Layer_1
 62
7
100
AcDbSpline
 70
8
 71
3
 72
8
 73
4
 74
0
 40
0
 40
0
 40
0
 40
0
 40
1
 40
1
 40
1
 40
1
 10
23.459711
 20
12.862706
 30
0.0
 10
21.804320
 20
12.343521
 30
0.0
 10
20.040470
 20
12.077171
 30
0.0
 10
18.323719
 20
12.341146
 30
0.0
  0
SPLINE
  5
109
100
AcDbEntity
  8
Layer_1
 62
7
100
AcDbSpline
 70
8
 71
3
 72
8
 73
4
 74
0
 40
0
 40
0
 40
0
 40
0
 40
1
 40
1
 40
1
 40
1
 10
18.323719
 20
12.341146
 30
0.0
 10
16.731216
 20
12.674457
 30
0.0
 10
15.035927
 20
13.422802
 30
0.0
 10
14.162751
 20
14.983023
 30
0.0
  0
SPLINE
  5
10a
100
AcDbEntity
  8
Layer_1
 62
7
100
AcDbSpline
 70
8
 71
3
 72
8
 73
4
 74
0
 40
0
 40
0
 40
0
 40
0
 40
1
 40
1
 40
1
 40
1
 10
14.162751
 20
14.983023
 30
0.0
 10
13.421831
 20
16.406872
 30
0.0
 10
13.331443
 20
18.073090
 30
0.0
 10
13.418387
 20
19.666967
 30
0.0
  0
SPLINE
  5
10b
100
AcDbEntity
  8
Layer_1
 62
7
100
AcDbSpline
 70
8
 71
3
 72
8
 73
4
 74
0
 40
0
 40
0
 40
0
 40
0
 40
1
 40
1
 40
1
 40
1
 10
13.418387
 20
19.666967
 30
0.0
 10
13.417705
 20
21.673048
 30
0.0
 10
13.332722
 20
23.679184
 30
0.0
 10
13.368395
 20
25.685988
 30
0.0
  0
SPLINE
  5
10c
100
AcDbEntity
  8
Layer_1
 62
7
100
AcDbSpline
 70
8
 71
3
 72
8
 73
4
 74
0
 40
0
 40
0
 40
0
 40
0
 40
1
 40
1
 40
1
 40
1
 10
12.873457
 20
23.121891
 30
0.0
 10
12.806320
 20
23.404730
 30
0.0
 10
13.399003
 20
23.530433
 30
0.0
 10
13.363897
 20
23.819931
 30
0.0
  0
SPLINE
  5
10d
100
AcDbEntity
  8
Layer_1
 62
7
100
AcDbSpline
 70
8
 71
3
 72
8
 73
4
 74
0
 40
0
 40
0
 40
0
 40
0
 40
1
 40
1
 40
1
 40
1
 10
13.363897
 20
23.819931
 30
0.0
 10
13.329917
 20
24.100146
 30
0.0
 10
12.736023
 20
24.058645
 30
0.0
 10
12.744048
 20
24.341115
 30
0.0
  0
SPLINE
  5
10e
100
AcDbEntity
  8
Layer_1
 62
7
100
AcDbSpline
 70
8
 71
3
 72
8
 73
4
 74
0
 40
0
 40
0
 40
0
 40
0
 40
1
 40
1
 40
1
 40
1
 10
12.744048
 20
24.341115
 30
0.0
 10
12.751671
 20
24.609425
 30
0.0
 10
13.353738
 20
24.527989
 30
0.0
 10
13.359823
 20
24.796345
 30
0.0
  0
SPLINE
  5
10f
100
AcDbEntity
  8
Layer_1
 62
7
100
AcDbSpline
 70
8
 71
3
 72
8
 73
4
 74
0
 40
0
 40
0
 40
0
 40
0
 40
1
 40
1
 40
1
 40
1
 10
13.359823
 20
24.796345
 30
0.0
 10
13.365123
 20
25.030066
 30
0.0
 10
12.837650
 20
24.986894
 30
0.0
 10
12.842132
 20
25.220635
 30
0.0
  0
SPLINE
  5
110
100
AcDbEntity
  8
Layer_1
 62
7
100
AcDbSpline
 70
8
 71
3
 72
8
 73
4
 74
0
 40
0
 40
0
 40
0
 40
0
 40
1
 40
1
 40
1
 40
1
 10
12.842132
 20
25.220635
 30
0.0
 10
12.846191
 20
25.432301
 30
0.0
 10
13.137779
 20
25.521033
 30
0.0
 10
13.325258
 20
25.583610
 30
0.0
  0
SPLINE
  5
111
100
AcDbEntity
  8
Layer_1
 62
7
100
AcDbSpline
 70
8
 71
3
 72
8
 73
4
 74
0
 40
0
 40
0
 40
0
 40
0
 40
1
 40
1
 40
1
 40
1
 10
13.325258
 20
25.583610
 30
0.0
 10
14.162188
 20
25.862960
 30
0.0
 10
15.077578
 20
25.537246
 30
0.0
 10
15.953389
 20
25.560338
 30
0.0
  0
SPLINE
  5
112
100
AcDbEntity
  8
Layer_1
 62
7
100
AcDbSpline
 70
8
 71
3
 72
8
 73
4
 74
0
 40
0
 40
0
 40
0
 40
0
 40
1
 40
1
 40
1
 40
1
 10
15.953389
 20
25.560338
 30
0.0
 10
17.162815
 20
25.592228
 30
0.0
 10
18.368221
 20
25.726343
 30
0.0
 10
19.576839
 20
25.783708
 30
0.0
  0
SPLINE
  5
113
100
AcDbEntity
  8
Layer_1
 62
7
100
AcDbSpline
 70
8
 71
3
 72
8
 73
4
 74
0
 40
0
 40
0
 40
0
 40
0
 40
1
 40
1
 40
1
 40
1
 10
19.576839
 20
25.783708
 30
0.0
 10
20.508126
 20
25.827909
 30
0.0
 10
21.443960
 20
25.782836
 30
0.0
 10
22.372072
 20
25.876778
 30
0.0
  0
SPLINE
  5
114
100
AcDbEntity
  8
Layer_1
 62
7
100
AcDbSpline
 70
8
 71
3
 72
8
 73
4
 74
0
 40
0
 40
0
 40
0
 40
0
 40
1
 40
1
 40
1
 40
1
 10
22.372072
 20
25.876778
 30
0.0
 10
23.218430
 20
25.962446
 30
0.0
 10
24.041977
 20
26.264614
 30
0.0
 10
24.891232
 20
26.304902
 30
0.0
  0
SPLINE
  5
115
100
AcDbEntity
  8
Layer_1
 62
7
100
AcDbSpline
 70
8
 71
3
 72
8
 73
4
 74
0
 40
0
 40
0
 40
0
 40
0
 40
1
 40
1
 40
1
 40
1
 10
24.891232
 20
26.304902
 30
0.0
 10
25.377382
 20
26.327965
 30
0.0
 10
25.880150
 20
26.326082
 30
0.0
 10
26.347680
 20
26.197331
 30
0.0
  0
SPLINE
  5
116
100
AcDbEntity
  8
Layer_1
 62
7
100
AcDbSpline
 70
8
 71
3
 72
8
 73
4
 74
0
 40
0
 40
0
 40
0
 40
0
 40
1
 40
1
 40
1
 40
1
 10
26.347680
 20
26.197331
 30
0.0
 10
27.362100
 20
25.917973
 30
0.0
 10
26.848485
 20
26.578999
 30
0.0
 10
28.456846
 20
27.676535
 30
0.0
  0
SPLINE
  5
117
100
AcDbEntity
  8
Layer_1
 62
7
100
AcDbSpline
 70
8
 71
3
 72
8
 73
4
 74
0
 40
0
 40
0
 40
0
 40
0
 40
1
 40
1
 40
1
 40
1
 10
28.456846
 20
27.676535
 30
0.0
 10
28.013965
 20
25.262926
 30
0.0
 10
27.245079
 20
25.282834
 30
0.0
 10
26.742754
 20
25.016857
 30
0.0
  0
SPLINE
  5
118
100
AcDbEntity
  8
Layer_1
 62
7
100
AcDbSpline
 70
8
 71
3
 72
8
 73
4
 74
0
 40
0
 40
0
 40
0
 40
0
 40
1
 40
1
 40
1
 40
1
 10
26.742754
 20
25.016857
 30
0.0
 10
27.646849
 20
24.903352
 30
0.0
 10
28.297172
 20
25.280000
 30
0.0
 10
29.346278
 20
25.826457
 30
0.0
  0
SPLINE
  5
119
100
AcDbEntity
  8
Layer_1
 62
7
100
AcDbSpline
 70
8
 71
3
 72
8
 73
4
 74
0
 40
0
 40
0
 40
0
 40
0
 40
1
 40
1
 40
1
 40
1
 10
29.346278
 20
25.826457
 30
0.0
 10
28.815853
 20
24.344671
 30
0.0
 10
27.532882
 20
24.351319
 30
0.0
 10
26.497570
 20
23.878518
 30
0.0
  0
SPLINE
  5
11a
100
AcDbEntity
  8
Layer_1
 62
7
100
AcDbSpline
 70
8
 71
3
 72
8
 73
4
 74
0
 40
0
 40
0
 40
0
 40
0
 40
1
 40
1
 40
1
 40
1
 10
26.497570
 20
23.878518
 30
0.0
 10
26.161498
 20
23.725041
 30
0.0
 10
25.791577
 20
23.676044
 30
0.0
 10
25.433072
 20
23.602412
 30
0.0
  0
SPLINE
  5
11b
100
AcDbEntity
  8
Layer_1
 62
7
100
AcDbSpline
 70
8
 71
3
 72
8
 73
4
 74
0
 40
0
 40
0
 40
0
 40
0
 40
1
 40
1
 40
1
 40
1
 10
25.433072
 20
23.602412
 30
0.0
 10
24.423092
 20
23.394975
 30
0.0
 10
23.403379
 20
23.231868
 30
0.0
 10
22.379021
 20
23.137059
 30
0.0
  0
SPLINE
  5
11c
100
AcDbEntity
  8
Layer_1
 62
7
100
AcDbSpline
 70
8
 71
3
 72
8
 73
4
 74
0
 40
0
 40
0
 40
0
 40
0
 40
1
 40
1
 40
1
 40
1
 10
22.379021
 20
23.137059
 30
0.0
 10
21.450245
 20
23.051097
 30
0.0
 10
20.515958
 20
23.037760
 30
0.0
 10
19.583788
 20
23.043989
 30
0.0
  0
SPLINE
  5
11d
100
AcDbEntity
  8
Layer_1
 62
7
100
AcDbSpline
 70
8
 71
3
 72
8
 73
4
 74
0
 40
0
 40
0
 40
0
 40
0
 40
1
 40
1
 40
1
 40
1
 10
19.583788
 20
23.043989
 30
0.0
 10
18.386378
 20
23.051990
 30
0.0
 10
17.191659
 20
23.253149
 30
0.0
 10
15.994848
 20
23.211516
 30
0.0
  0
SPLINE
  5
11e
100
AcDbEntity
  8
Layer_1
 62
7
100
AcDbSpline
 70
8
 71
3
 72
8
 73
4
 74
0
 40
0
 40
0
 40
0
 40
0
 40
1
 40
1
 40
1
 40
1
 10
15.994848
 20
23.211516
 30
0.0
 10
15.102292
 20
23.180466
 30
0.0
 10
14.213412
 20
22.750592
 30
0.0
 10
13.331316
 20
22.900811
 30
0.0
  0
SPLINE
  5
11f
100
AcDbEntity
  8
Layer_1
 62
7
100
AcDbSpline
 70
8
 71
3
 72
8
 73
4
 74
0
 40
0
 40
0
 40
0
 40
0
 40
1
 40
1
 40
1
 40
1
 10
13.331316
 20
22.900811
 30
0.0
 10
13.166151
 20
22.928938
 30
0.0
 10
12.914937
 20
22.947145
 30
0.0
 10
12.873457
 20
23.121891
 30
0.0
  0
LWPOLYLINE
  5
120
100
AcDbEntity
  8
Layer_1
 62
7
100
AcDbPolyline
 90
3
 70
1
 10
13.368395
 20
25.685988
 30
0.0
 10
13.368395
 20
25.685988
 30
0.0
 10
13.368395
 20
25.685988
 30
0.0
  0
SPLINE
  5
121
100
AcDbEntity
  8
Layer_1
 62
7
100
AcDbSpline
 70
8
 71
3
 72
8
 73
4
 74
0
 40
0
 40
0
 40
0
 40
0
 40
1
 40
1
 40
1
 40
1
 10
26.524092
 20
18.403600
 30
0.0
 10
26.524092
 20
18.403600
 30
0.0
 10
27.770677
 20
18.758848
 30
0.0
 10
28.281746
 20
19.157088
 30
0.0
  0
SPLINE
  5
122
100
AcDbEntity
  8
Layer_1
 62
7
100
AcDbSpline
 70
8
 71
3
 72
8
 73
4
 74
0
 40
0
 40
0
 40
0
 40
0
 40
1
 40
1
 40
1
 40
1
 10
28.281746
 20
19.157088
 30
0.0
 10
28.932885
 20
19.664476
 30
0.0
 10
29.780930
 20
21.042192
 30
0.0
 10
29.830338
 20
21.148797
 30
0.0
  0
LWPOLYLINE
  5
123
100
AcDbEntity
  8
Layer_1
 62
7
100
AcDbPolyline
 90
2
 70
1
 10
12.873457
 20
23.121891
 30
0.0
 10
12.873457
 20
23.121891
 30
0.0
  0
SPLINE
  5
124
100
AcDbEntity
  8
Layer_1
 62
7
100
AcDbSpline
 70
8
 71
3
 72
8
 73
4
 74
0
 40
0
 40
0
 40
0
 40
0
 40
1
 40
1
 40
1
 40
1
 10
29.920924
 20
21.344245
 30
0.0
 10
29.731581
 20
21.578654
 30
0.0
 10
29.669261
 20
21.862893
 30
0.0
 10
29.658100
 20
22.167201
 30
0.0
  0
LWPOLYLINE
  5
125
100
AcDbEntity
  8
Layer_1
 62
7
100
AcDbPolyline
 90
2
 70
0
 10
29.830338
 20
21.148797
 30
0.0
 10
29.920924
 20
21.344245
 30
0.0
  0
SPLINE
  5
126
100
AcDbEntity
  8
Layer_1
 62
7
100
AcDbSpline
 70
8
 71
3
 72
8
 73
4
 74
0
 40
0
 40
0
 40
0
 40
0
 40
1
 40
1
 40
1
 40
1
 10
29.920924
 20
21.344245
 30
0.0
 10
29.920924
 20
21.344245
 30
0.0
 10
30.189926
 20
21.247221
 30
0.0
 10
30.329733
 20
21.228381
 30
0.0
  0
SPLINE
  5
127
100
AcDbEntity
  8
Layer_1
 62
7
100
AcDbSpline
 70
8
 71
3
 72
8
 73
4
 74
0
 40
0
 40
0
 40
0
 40
0
 40
1
 40
1
 40
1
 40
1
 10
30.329733
 20
21.228381
 30
0.0
 10
30.482731
 20
21.207764
 30
0.0
 10
30.792278
 20
21.232560
 30
0.0
 10
30.792278
 20
21.232560
 30
0.0
  0
SPLINE
  5
128
100
AcDbEntity
  8
Layer_1
 62
7
100
AcDbSpline
 70
8
 71
3
 72
8
 73
4
 74
0
 40
0
 40
0
 40
0
 40
0
 40
1
 40
1
 40
1
 40
1
 10
13.392497
 20
18.543779
 30
0.0
 10
13.392497
 20
18.543779
 30
0.0
 10
11.825173
 20
19.016635
 30
0.0
 10
11.384726
 20
19.678969
 30
0.0
  0
SPLINE
  5
129
100
AcDbEntity
  8
Layer_1
 62
7
100
AcDbSpline
 70
8
 71
3
 72
8
 73
4
 74
0
 40
0
 40
0
 40
0
 40
0
 40
1
 40
1
 40
1
 40
1
 10
11.384726
 20
19.678969
 30
0.0
 10
11.003566
 20
20.252151
 30
0.0
 10
11.441162
 20
21.182096
 30
0.0
 10
11.078877
 20
21.769351
 30
0.0
  0
SPLINE
  5
12a
100
AcDbEntity
  8
Layer_1
 62
7
100
AcDbSpline
 70
8
 71
3
 72
8
 73
4
 74
0
 40
0
 40
0
 40
0
 40
0
 40
1
 40
1
 40
1
 40
1
 10
11.078877
 20
21.769351
 30
0.0
 10
10.965709
 20
21.952793
 30
0.0
 10
11.092503
 20
21.677402
 30
0.0
 10
10.557409
 20
22.116528
 30
0.0
  0
LWPOLYLINE
  5
12b
100
AcDbEntity
  8
Layer_1
 62
7
100
AcDbPolyline
 90
2
 70
0
 10
30.421306
 20
22.088809
 30
0.0
 10
29.920924
 20
21.344245
 30
0.0
  0
LWPOLYLINE
  5
12c
100
AcDbEntity
  8
Layer_1
 62
7
100
AcDbPolyline
 90
3
 70
0
 10
11.486979
 20
22.150824
 30
0.0
 10
11.078877
 20
21.769351
 30
0.0
 10
10.995687
 20
22.545838
 30
0.0
  0
LWPOLYLINE
  5
12d
100
AcDbEntity
  8
Layer_1
 62
7
100
AcDbPolyline
 90
4
 70
0
 10
17.948787
 20
12.427117
 30
0.0
 10
18.061746
 20
10.849172
 30
0.0
 10
17.293096
 20
10.375334
 30
0.0
 10
17.293096
 20
10.375334
 30
0.0
  0
SPLINE
  5
12e
100
AcDbEntity
  8
Layer_1
 62
7
100
AcDbSpline
 70
8
 71
3
 72
8
 73
4
 74
0
 40
0
 40
0
 40
0
 40
0
 40
1
 40
1
 40
1
 40
1
 10
17.558059
 20
20.823049
 30
0.0
 10
17.558059
 20
20.530061
 30
0.0
 10
17.337893
 20
20.292548
 30
0.0
 10
17.066305
 20
20.292548
 30
0.0
  0
SPLINE
  5
12f
100
AcDbEntity
  8
Layer_1
 62
7
100
AcDbSpline
 70
8
 71
3
 72
8
 73
4
 74
0
 40
0
 40
0
 40
0
 40
0
 40
1
 40
1
 40
1
 40
1
 10
17.066305
 20
20.292548
 30
0.0
 10
16.794717
 20
20.292548
 30
0.0
 10
16.574552
 20
20.530061
 30
0.0
 10
16.574552
 20
20.823049
 30
0.0
  0
SPLINE
  5
130
100
AcDbEntity
  8
Layer_1
 62
7
100
AcDbSpline
 70
8
 71
3
 72
8
 73
4
 74
0
 40
0
 40
0
 40
0
 40
0
 40
1
 40
1
 40
1
 40
1
 10
16.574552
 20
20.823049
 30
0.0
 10
16.574552
 20
21.116037
 30
0.0
 10
16.794717
 20
21.353551
 30
0.0
 10
17.066305
 20
21.353551
 30
0.0
  0
SPLINE
  5
131
100
AcDbEntity
  8
Layer_1
 62
7
100
AcDbSpline
 70
8
 71
3
 72
8
 73
4
 74
0
 40
0
 40
0
 40
0
 40
0
 40
1
 40
1
 40
1
 40
1
 10
17.066305
 20
21.353551
 30
0.0
 10
17.196727
 20
21.353551
 30
0.0
 10
17.321806
 20
21.297659
 30
0.0
 10
17.414028
 20
21.198171
 30
0.0
  0
SPLINE
  5
132
100
AcDbEntity
  8
Layer_1
 62
7
100
AcDbSpline
 70
8
 71
3
 72
8
 73
4
 74
0
 40
0
 40
0
 40
0
 40
0
 40
1
 40
1
 40
1
 40
1
 10
17.414028
 20
21.198171
 30
0.0
 10
17.506250
 20
21.098682
 30
0.0
 10
17.558059
 20
20.963747
 30
0.0
 10
17.558059
 20
20.823049
 30
0.0
  0
LWPOLYLINE
  5
133
100
AcDbEntity
  8
Layer_1
 62
7
100
AcDbPolyline
 90
3
 70
0
 10
21.602988
 20
12.407307
 30
0.0
 10
21.715947
 20
10.829363
 30
0.0
 10
20.788687
 20
10.460822
 30
0.0
  0
SPLINE
  5
134
100
AcDbEntity
  8
Layer_1
 62
7
100
AcDbSpline
 70
8
 71
3
 72
8
 73
4
 74
0
 40
0
 40
0
 40
0
 40
0
 40
1
 40
1
 40
1
 40
1
 10
20.965828
 20
20.850972
 30
0.0
 10
20.965828
 20
20.557984
 30
0.0
 10
20.745662
 20
20.320470
 30
0.0
 10
20.474074
 20
20.320470
 30
0.0
  0
SPLINE
  5
135
100
AcDbEntity
  8
Layer_1
 62
7
100
AcDbSpline
 70
8
 71
3
 72
8
 73
4
 74
0
 40
0
 40
0
 40
0
 40
0
 40
1
 40
1
 40
1
 40
1
 10
20.474074
 20
20.320470
 30
0.0
 10
20.343653
 20
20.320470
 30
0.0
 10
20.218573
 20
20.376362
 30
0.0
 10
20.126352
 20
20.475850
 30
0.0
  0
SPLINE
  5
136
100
AcDbEntity
  8
Layer_1
 62
7
100
AcDbSpline
 70
8
 71
3
 72
8
 73
4
 74
0
 40
0
 40
0
 40
0
 40
0
 40
1
 40
1
 40
1
 40
1
 10
20.126352
 20
20.475850
 30
0.0
 10
20.034130
 20
20.575339
 30
0.0
 10
19.982320
 20
20.710274
 30
0.0
 10
19.982320
 20
20.850972
 30
0.0
  0
SPLINE
  5
137
100
AcDbEntity
  8
Layer_1
 62
7
100
AcDbSpline
 70
8
 71
3
 72
8
 73
4
 74
0
 40
0
 40
0
 40
0
 40
0
 40
1
 40
1
 40
1
 40
1
 10
19.982320
 20
20.850972
 30
0.0
 10
19.982320
 20
20.991670
 30
0.0
 10
20.034130
 20
21.126605
 30
0.0
 10
20.126352
 20
21.226093
 30
0.0
  0
SPLINE
  5
138
100
AcDbEntity
  8
Layer_1
 62
7
100
AcDbSpline
 70
8
 71
3
 72
8
 73
4
 74
0
 40
0
 40
0
 40
0
 40
0
 40
1
 40
1
 40
1
 40
1
 10
20.126352
 20
21.226093
 30
0.0
 10
20.218573
 20
21.325582
 30
0.0
 10
20.343653
 20
21.381474
 30
0.0
 10
20.474074
 20
21.381474
 30
0.0
  0
SPLINE
  5
139
100
AcDbEntity
  8
Layer_1
 62
7
100
AcDbSpline
 70
8
 71
3
 72
8
 73
4
 74
0
 40
0
 40
0
 40
0
 40
0
 40
1
 40
1
 40
1
 40
1
 10
20.474074
 20
21.381474
 30
0.0
 10
20.745662
 20
21.381473
 30
0.0
 10
20.965828
 20
21.143960
 30
0.0
 10
20.965828
 20
20.850972
 30
0.0
  0
LWPOLYLINE
  5
13a
100
AcDbEntity
  8
Layer_1
 62
7
100
AcDbPolyline
 90
2
 70
1
 10
17.558059
 20
20.823049
 30
0.0
 10
17.558059
 20
20.823049
 30
0.0
  0
SPLINE
  5
13b
100
AcDbEntity
  8
Layer_1
 62
7
100
AcDbSpline
 70
8
 71
3
 72
8
 73
4
 74
0
 40
0
 40
0
 40
0
 40
0
 40
1
 40
1
 40
1
 40
1
 10
16.436516
 20
18.365989
 30
0.0
 10
17.885309
 20
19.296030
 30
0.0
 10
20.856029
 20
19.091084
 30
0.0
 10
22.303054
 20
19.110553
 30
0.0
  0
SPLINE
  5
13c
100
AcDbEntity
  8
Layer_1
 62
7
100
AcDbSpline
 70
8
 71
3
 72
8
 73
4
 74
0
 40
0
 40
0
 40
0
 40
0
 40
1
 40
1
 40
1
 40
1
 10
22.303054
 20
19.110553
 30
0.0
 10
22.465132
 20
19.112733
 30
0.0
 10
22.498048
 20
18.810272
 30
0.0
 10
22.510108
 20
18.635893
 30
0.0
  0
SPLINE
  5
13d
100
AcDbEntity
  8
Layer_1
 62
7
100
AcDbSpline
 70
8
 71
3
 72
8
 73
4
 74
0
 40
0
 40
0
 40
0
 40
0
 40
1
 40
1
 40
1
 40
1
 10
22.510108
 20
18.635893
 30
0.0
 10
22.547405
 20
18.096577
 30
0.0
 10
22.310800
 20
17.561002
 30
0.0
 10
22.078745
 20
17.081616
 30
0.0
  0
SPLINE
  5
13e
100
AcDbEntity
  8
Layer_1
 62
7
100
AcDbSpline
 70
8
 71
3
 72
8
 73
4
 74
0
 40
0
 40
0
 40
0
 40
0
 40
1
 40
1
 40
1
 40
1
 10
22.078745
 20
17.081616
 30
0.0
 10
21.879790
 20
16.670609
 30
0.0
 10
21.612356
 20
16.281910
 30
0.0
 10
21.276409
 20
15.992691
 30
0.0
  0
SPLINE
  5
13f
100
AcDbEntity
  8
Layer_1
 62
7
100
AcDbSpline
 70
8
 71
3
 72
8
 73
4
 74
0
 40
0
 40
0
 40
0
 40
0
 40
1
 40
1
 40
1
 40
1
 10
21.276409
 20
15.992691
 30
0.0
 10
20.830035
 20
15.608403
 30
0.0
 10
20.300865
 20
15.248158
 30
0.0
 10
19.732130
 20
15.192285
 30
0.0
  0
SPLINE
  5
140
100
AcDbEntity
  8
Layer_1
 62
7
100
AcDbSpline
 70
8
 71
3
 72
8
 73
4
 74
0
 40
0
 40
0
 40
0
 40
0
 40
1
 40
1
 40
1
 40
1
 10
19.732130
 20
15.192285
 30
0.0
 10
19.046406
 20
15.124918
 30
0.0
 10
18.320627
 20
15.380647
 30
0.0
 10
17.739232
 20
15.778629
 30
0.0
  0
SPLINE
  5
141
100
AcDbEntity
  8
Layer_1
 62
7
100
AcDbSpline
 70
8
 71
3
 72
8
 73
4
 74
0
 40
0
 40
0
 40
0
 40
0
 40
1
 40
1
 40
1
 40
1
 10
17.739232
 20
15.778629
 30
0.0
 10
17.196683
 20
16.150020
 30
0.0
 10
16.727123
 20
16.717308
 30
0.0
 10
16.488280
 20
17.360827
 30
0.0
  0
SPLINE
  5
142
100
AcDbEntity
  8
Layer_1
 62
7
100
AcDbSpline
 70
8
 71
3
 72
8
 73
4
 74
0
 40
0
 40
0
 40
0
 40
0
 40
1
 40
1
 40
1
 40
1
 10
16.488280
 20
17.360827
 30
0.0
 10
16.372656
 20
17.672354
 30
0.0
 10
16.169202
 20
18.194389
 30
0.0
 10
16.436516
 20
18.365989
 30
0.0
  0
LWPOLYLINE
  5
143
100
AcDbEntity
  8
Layer_1
 62
7
100
AcDbPolyline
 90
2
 70
1
 10
20.965828
 20
20.850972
 30
0.0
 10
20.965828
 20
20.850972
 30
0.0
  0
SPLINE
  5
144
100
AcDbEntity
  8
Layer_1
 62
7
100
AcDbSpline
 70
8
 71
3
 72
8
 73
4
 74
0
 40
0
 40
0
 40
0
 40
0
 40
1
 40
1
 40
1
 40
1
 10
16.700336
 20
16.908097
 30
0.0
 10
16.700336
 20
16.908097
 30
0.0
 10
17.509545
 20
17.722853
 30
0.0
 10
17.799623
 20
17.425977
 30
0.0
  0
SPLINE
  5
145
100
AcDbEntity
  8
Layer_1
 62
7
100
AcDbSpline
 70
8
 71
3
 72
8
 73
4
 74
0
 40
0
 40
0
 40
0
 40
0
 40
1
 40
1
 40
1
 40
1
 10
17.799623
 20
17.425977
 30
0.0
 10
18.116823
 20
17.101343
 30
0.0
 10
17.338679
 20
16.101183
 30
0.0
 10
17.338679
 20
16.101183
 30
0.0
  0
SPLINE
  5
146
100
AcDbEntity
  8
Layer_1
 62
7
100
AcDbSpline
 70
8
 71
3
 72
8
 73
4
 74
0
 40
0
 40
0
 40
0
 40
0
 40
1
 40
1
 40
1
 40
1
 10
17.338679
 20
16.101183
 30
0.0
 10
17.338679
 20
16.101183
 30
0.0
 10
18.114870
 20
17.293847
 30
0.0
 10
18.567449
 20
17.053695
 30
0.0
  0
SPLINE
  5
147
100
AcDbEntity
  8
Layer_1
 62
7
100
AcDbSpline
 70
8
 71
3
 72
8
 73
4
 74
0
 40
0
 40
0
 40
0
 40
0
 40
1
 40
1
 40
1
 40
1
 10
18.567449
 20
17.053695
 30
0.0
 10
19.044120
 20
16.800759
 30
0.0
 10
18.620787
 20
15.335450
 30
0.0
 10
18.620787
 20
15.335450
 30
0.0
  0
SPLINE
  5
148
100
AcDbEntity
  8
Layer_1
 62
7
100
AcDbSpline
 70
8
 71
3
 72
8
 73
4
 74
0
 40
0
 40
0
 40
0
 40
0
 40
1
 40
1
 40
1
 40
1
 10
18.620787
 20
15.335450
 30
0.0
 10
18.620787
 20
15.335450
 30
0.0
 10
18.911650
 20
16.865057
 30
0.0
 10
19.464685
 20
16.876861
 30
0.0
  0
SPLINE
  5
149
100
AcDbEntity
  8
Layer_1
 62
7
100
AcDbSpline
 70
8
 71
3
 72
8
 73
4
 74
0
 40
0
 40
0
 40
0
 40
0
 40
1
 40
1
 40
1
 40
1
 10
19.464685
 20
16.876861
 30
0.0
 10
20.017319
 20
16.888656
 30
0.0
 10
20.363785
 20
15.373756
 30
0.0
 10
20.363785
 20
15.373756
 30
0.0
  0
SPLINE
  5
14a
100
AcDbEntity
  8
Layer_1
 62
7
100
AcDbSpline
 70
8
 71
3
 72
8
 73
4
 74
0
 40
0
 40
0
 40
0
 40
0
 40
1
 40
1
 40
1
 40
1
 10
20.363785
 20
15.373756
 30
0.0
 10
20.363785
 20
15.373756
 30
0.0
 10
20.150763
 20
16.848355
 30
0.0
 10
20.637992
 20
17.109537
 30
0.0
  0
SPLINE
  5
14b
100
AcDbEntity
  8
Layer_1
 62
7
100
AcDbSpline
 70
8
 71
3
 72
8
 73
4
 74
0
 40
0
 40
0
 40
0
 40
0
 40
1
 40
1
 40
1
 40
1
 10
20.637992
 20
17.109537
 30
0.0
 10
21.006092
 20
17.306859
 30
0.0
 10
21.731952
 20
16.495638
 30
0.0
 10
21.731952
 20
16.495638
 30
0.0
  0
SPLINE
  5
14c
100
AcDbEntity
  8
Layer_1
 62
7
100
AcDbSpline
 70
8
 71
3
 72
8
 73
4
 74
0
 40
0
 40
0
 40
0
 40
0
 40
1
 40
1
 40
1
 40
1
 10
21.731952
 20
16.495638
 30
0.0
 10
21.731952
 20
16.495638
 30
0.0
 10
21.162293
 20
17.402671
 30
0.0
 10
21.414446
 20
17.733109
 30
0.0
  0
SPLINE
  5
14d
100
AcDbEntity
  8
Layer_1
 62
7
100
AcDbSpline
 70
8
 71
3
 72
8
 73
4
 74
0
 40
0
 40
0
 40
0
 40
0
 40
1
 40
1
 40
1
 40
1
 10
21.414446
 20
17.733109
 30
0.0
 10
21.609571
 20
17.988815
 30
0.0
 10
22.332775
 20
17.656966
 30
0.0
 10
22.332775
 20
17.656966
 30
0.0
  0
SPLINE
  5
14e
100
AcDbEntity
  8
Layer_1
 62
7
100
AcDbSpline
 70
8
 71
3
 72
8
 73
4
 74
0
 40
0
 40
0
 40
0
 40
0
 40
1
 40
1
 40
1
 40
1
 10
16.585482
 20
17.129410
 30
0.0
 10
16.585482
 20
17.129410
 30
0.0
 10
17.637325
 20
18.403217
 30
0.0
 10
18.343141
 20
18.403217
 30
0.0
  0
SPLINE
  5
14f
100
AcDbEntity
  8
Layer_1
 62
7
100
AcDbSpline
 70
8
 71
3
 72
8
 73
4
 74
0
 40
0
 40
0
 40
0
 40
0
 40
1
 40
1
 40
1
 40
1
 10
18.343141
 20
18.403217
 30
0.0
 10
19.021766
 20
18.403217
 30
0.0
 10
19.002812
 20
17.928557
 30
0.0
 10
19.214494
 20
17.928557
 30
0.0
  0
SPLINE
  5
150
100
AcDbEntity
  8
Layer_1
 62
7
100
AcDbSpline
 70
8
 71
3
 72
8
 73
4
 74
0
 40
0
 40
0
 40
0
 40
0
 40
1
 40
1
 40
1
 40
1
 10
19.214494
 20
17.928557
 30
0.0
 10
19.408456
 20
17.926729
 30
0.0
 10
19.469091
 20
18.524209
 30
0.0
 10
20.284274
 20
18.524209
 30
0.0
  0
SPLINE
  5
151
100
AcDbEntity
  8
Layer_1
 62
7
100
AcDbSpline
 70
8
 71
3
 72
8
 73
4
 74
0
 40
0
 40
0
 40
0
 40
0
 40
1
 40
1
 40
1
 40
1
 10
20.284274
 20
18.524209
 30
0.0
 10
21.017805
 20
18.524209
 30
0.0
 10
22.332775
 20
17.656966
 30
0.0
 10
22.332775
 20
17.656966
 30
0.0
  0
LWPOLYLINE
  5
152
100
AcDbEntity
  8
Layer_1
 62
7
100
AcDbPolyline
 90
2
 70
1
 10
16.436516
 20
18.365989
 30
0.0
 10
16.436516
 20
18.365989
 30
0.0
  0
SPLINE
  5
153
100
AcDbEntity
  8
Layer_1
 62
7
100
AcDbSpline
 70
8
 71
3
 72
8
 73
4
 74
0
 40
0
 40
0
 40
0
 40
0
 40
1
 40
1
 40
1
 40
1
 10
36.208885
 20
20.675027
 30
0.0
 10
36.208890
 20
16.555182
 30
0.0
 10
34.572292
 20
12.604074
 30
0.0
 10
31.659125
 20
9.690901
 30
0.0
  0
SPLINE
  5
154
100
AcDbEntity
  8
Layer_1
 62
7
100
AcDbSpline
 70
8
 71
3
 72
8
 73
4
 74
0
 40
0
 40
0
 40
0
 40
0
 40
1
 40
1
 40
1
 40
1
 10
31.659125
 20
9.690901
 30
0.0
 10
28.745957
 20
6.777728
 30
0.0
 10
24.794852
 20
5.141123
 30
0.0
 10
20.675007
 20
5.141121
 30
0.0
  0
SPLINE
  5
155
100
AcDbEntity
  8
Layer_1
 62
7
100
AcDbSpline
 70
8
 71
3
 72
8
 73
4
 74
0
 40
0
 40
0
 40
0
 40
0
 40
1
 40
1
 40
1
 40
1
 10
20.675007
 20
5.141121
 30
0.0
 10
16.555158
 20
5.141116
 30
0.0
 10
12.604045
 20
6.777718
 30
0.0
 10
9.690872
 20
9.690891
 30
0.0
  0
SPLINE
  5
156
100
AcDbEntity
  8
Layer_1
 62
7
100
AcDbSpline
 70
8
 71
3
 72
8
 73
4
 74
0
 40
0
 40
0
 40
0
 40
0
 40
1
 40
1
 40
1
 40
1
 10
9.690872
 20
9.690891
 30
0.0
 10
6.777698
 20
12.604065
 30
0.0
 10
5.141096
 20
16.555177
 30
0.0
 10
5.141101
 20
20.675027
 30
0.0
  0
SPLINE
  5
157
100
AcDbEntity
  8
Layer_1
 62
7
100
AcDbSpline
 70
8
 71
3
 72
8
 73
4
 74
0
 40
0
 40
0
 40
0
 40
0
 40
1
 40
1
 40
1
 40
1
 10
5.141101
 20
20.675027
 30
0.0
 10
5.141104
 20
24.794872
 30
0.0
 10
6.777709
 20
28.745977
 30
0.0
 10
9.690882
 20
31.659144
 30
0.0
  0
SPLINE
  5
158
100
AcDbEntity
  8
Layer_1
 62
7
100
AcDbSpline
 70
8
 71
3
 72
8
 73
4
 74
0
 40
0
 40
0
 40
0
 40
0
 40
1
 40
1
 40
1
 40
1
 10
9.690882
 20
31.659144
 30
0.0
 10
12.604054
 20
34.572312
 30
0.0
 10
16.555163
 20
36.208910
 30
0.0
 10
20.675007
 20
36.208905
 30
0.0
  0
SPLINE
  5
159
100
AcDbEntity
  8
Layer_1
 62
7
100
AcDbSpline
 70
8
 71
3
 72
8
 73
4
 74
0
 40
0
 40
0
 40
0
 40
0
 40
1
 40
1
 40
1
 40
1
 10
20.675007
 20
36.208905
 30
0.0
 10
29.254129
 20
36.208899
 30
0.0
 10
36.208880
 20
29.254148
 30
0.0
 10
36.208885
 20
20.675027
 30
0.0
  0
LWPOLYLINE
  5
15a
100
AcDbEntity
  8
Layer_1
 62
7
100
AcDbPolyline
 90
2
 70
0
 10
22.332775
 20
17.656966
 30
0.0
 10
22.332775
 20
17.656966
 30
0.0
  0
LWPOLYLINE
  5
15b
100
AcDbEntity
  8
Layer_1
 62
7
100
AcDbPolyline
 90
2
 70
1
 10
36.208885
 20
20.675027
 30
0.0
 10
36.208885
 20
20.675027
 30
0.0
  0
LWPOLYLINE
  5
15c
100
AcDbEntity
  8
Layer_1
 62
7
100
AcDbPolyline
 90
6
 70
1
 10
15.685683
 20
9.075369
 30
0.0
 10
15.234547
 20
9.075369
 30
0.0
 10
15.104322
 20
8.557576
 30
0.0
 10
15.558558
 20
8.557576
 30
0.0
 10
15.685683
 20
9.075369
 30
0.0
 10
15.685683
 20
9.075369
 30
0.0
  0
LWPOLYLINE
  5
15d
100
AcDbEntity
  8
Layer_1
 62
7
100
AcDbPolyline
 90
30
 70
1
 10
15.453137
 20
9.957483
 30
0.0
 10
15.291906
 20
9.314101
 30
0.0
 10
15.744594
 20
9.314101
 30
0.0
 10
15.907374
 20
9.957483
 30
0.0
 10
16.155422
 20
9.957483
 30
0.0
 10
15.995740
 20
9.314101
 30
0.0
 10
16.479433
 20
9.314101
 30
0.0
 10
16.479433
 20
9.075369
 30
0.0
 10
15.935280
 20
9.075369
 30
0.0
 10
15.808156
 20
8.557576
 30
0.0
 10
16.301147
 20
8.557576
 30
0.0
 10
16.301147
 20
8.320368
 30
0.0
 10
15.747692
 20
8.320368
 30
0.0
 10
15.586462
 20
7.678567
 30
0.0
 10
15.338417
 20
7.678567
 30
0.0
 10
15.498095
 20
8.320368
 30
0.0
 10
15.043861
 20
8.320368
 30
0.0
 10
14.884180
 20
7.678567
 30
0.0
 10
14.634583
 20
7.678567
 30
0.0
 10
14.795813
 20
8.320368
 30
0.0
 10
14.307470
 20
8.320368
 30
0.0
 10
14.307470
 20
8.557576
 30
0.0
 10
14.853175
 20
8.557576
 30
0.0
 10
14.983398
 20
9.075369
 30
0.0
 10
14.484203
 20
9.075369
 30
0.0
 10
14.484203
 20
9.314101
 30
0.0
 10
15.043861
 20
9.314101
 30
0.0
 10
15.201990
 20
9.957483
 30
0.0
 10
15.453137
 20
9.957483
 30
0.0
 10
15.453137
 20
9.957483
 30
0.0
  0
SPLINE
  5
15e
100
AcDbEntity
  8
Layer_1
 62
7
100
AcDbSpline
 70
8
 71
3
 72
8
 73
4
 74
0
 40
0
 40
0
 40
0
 40
0
 40
1
 40
1
 40
1
 40
1
 10
16.913445
 20
8.478497
 30
0.0
 10
16.925844
 20
8.282127
 30
0.0
 10
16.984755
 20
8.132267
 30
0.0
 10
17.090178
 20
8.028917
 30
0.0
  0
SPLINE
  5
15f
100
AcDbEntity
  8
Layer_1
 62
7
100
AcDbSpline
 70
8
 71
3
 72
8
 73
4
 74
0
 40
0
 40
0
 40
0
 40
0
 40
1
 40
1
 40
1
 40
1
 10
17.090178
 20
8.028917
 30
0.0
 10
17.196631
 20
7.926602
 30
0.0
 10
17.344425
 20
7.875445
 30
0.0
 10
17.533561
 20
7.875445
 30
0.0
  0
SPLINE
  5
160
100
AcDbEntity
  8
Layer_1
 62
7
100
AcDbSpline
 70
8
 71
3
 72
8
 73
4
 74
0
 40
0
 40
0
 40
0
 40
0
 40
1
 40
1
 40
1
 40
1
 10
17.533561
 20
7.875445
 30
0.0
 10
17.643116
 20
7.875445
 30
0.0
 10
17.749052
 20
7.888879
 30
0.0
 10
17.851371
 20
7.915746
 30
0.0
  0
SPLINE
  5
161
100
AcDbEntity
  8
Layer_1
 62
7
100
AcDbSpline
 70
8
 71
3
 72
8
 73
4
 74
0
 40
0
 40
0
 40
0
 40
0
 40
1
 40
1
 40
1
 40
1
 10
17.851371
 20
7.915746
 30
0.0
 10
17.954725
 20
7.942614
 30
0.0
 10
18.057044
 20
7.982924
 30
0.0
 10
18.158330
 20
8.036678
 30
0.0
  0
LWPOLYLINE
  5
162
100
AcDbEntity
  8
Layer_1
 62
7
100
AcDbPolyline
 90
3
 70
1
 10
18.224994
 20
8.618028
 30
0.0
 10
18.224994
 20
8.478497
 30
0.0
 10
16.913445
 20
8.478497
 30
0.0
  0
SPLINE
  5
163
100
AcDbEntity
  8
Layer_1
 62
7
100
AcDbSpline
 70
8
 71
3
 72
8
 73
4
 74
0
 40
0
 40
0
 40
0
 40
0
 40
1
 40
1
 40
1
 40
1
 10
18.158330
 20
7.766930
 30
0.0
 10
18.056011
 20
7.723525
 30
0.0
 10
17.951109
 20
7.690448
 30
0.0
 10
17.843621
 20
7.667701
 30
0.0
  0
SPLINE
  5
164
100
AcDbEntity
  8
Layer_1
 62
7
100
AcDbSpline
 70
8
 71
3
 72
8
 73
4
 74
0
 40
0
 40
0
 40
0
 40
0
 40
1
 40
1
 40
1
 40
1
 10
17.843621
 20
7.667701
 30
0.0
 10
17.736134
 20
7.644973
 30
0.0
 10
17.627097
 20
7.633609
 30
0.0
 10
17.516509
 20
7.633609
 30
0.0
  0
SPLINE
  5
165
100
AcDbEntity
  8
Layer_1
 62
7
100
AcDbSpline
 70
8
 71
3
 72
8
 73
4
 74
0
 40
0
 40
0
 40
0
 40
0
 40
1
 40
1
 40
1
 40
1
 10
17.516509
 20
7.633609
 30
0.0
 10
17.239523
 20
7.633609
 30
0.0
 10
17.019897
 20
7.714221
 30
0.0
 10
16.857633
 20
7.875445
 30
0.0
  0
SPLINE
  5
166
100
AcDbEntity
  8
Layer_1
 62
7
100
AcDbSpline
 70
8
 71
3
 72
8
 73
4
 74
0
 40
0
 40
0
 40
0
 40
0
 40
1
 40
1
 40
1
 40
1
 10
16.857633
 20
7.875445
 30
0.0
 10
16.696403
 20
8.036669
 30
0.0
 10
16.615788
 20
8.254742
 30
0.0
 10
16.615788
 20
8.529664
 30
0.0
  0
SPLINE
  5
167
100
AcDbEntity
  8
Layer_1
 62
7
100
AcDbSpline
 70
8
 71
3
 72
8
 73
4
 74
0
 40
0
 40
0
 40
0
 40
0
 40
1
 40
1
 40
1
 40
1
 10
16.615788
 20
8.529664
 30
0.0
 10
16.615788
 20
8.813881
 30
0.0
 10
16.692269
 20
9.039188
 30
0.0
 10
16.845232
 20
9.205586
 30
0.0
  0
SPLINE
  5
168
100
AcDbEntity
  8
Layer_1
 62
7
100
AcDbSpline
 70
8
 71
3
 72
8
 73
4
 74
0
 40
0
 40
0
 40
0
 40
0
 40
1
 40
1
 40
1
 40
1
 10
16.845232
 20
9.205586
 30
0.0
 10
16.999228
 20
9.373019
 30
0.0
 10
17.206450
 20
9.456736
 30
0.0
 10
17.466900
 20
9.456736
 30
0.0
  0
SPLINE
  5
169
100
AcDbEntity
  8
Layer_1
 62
7
100
AcDbSpline
 70
8
 71
3
 72
8
 73
4
 74
0
 40
0
 40
0
 40
0
 40
0
 40
1
 40
1
 40
1
 40
1
 10
17.466900
 20
9.456736
 30
0.0
 10
17.700476
 20
9.456736
 30
0.0
 10
17.884961
 20
9.381288
 30
0.0
 10
18.020355
 20
9.230394
 30
0.0
  0
SPLINE
  5
16a
100
AcDbEntity
  8
Layer_1
 62
7
100
AcDbSpline
 70
8
 71
3
 72
8
 73
4
 74
0
 40
0
 40
0
 40
0
 40
0
 40
1
 40
1
 40
1
 40
1
 10
18.020355
 20
9.230394
 30
0.0
 10
18.156781
 20
9.080534
 30
0.0
 10
18.224994
 20
8.876412
 30
0.0
 10
18.224994
 20
8.618028
 30
0.0
  0
LWPOLYLINE
  5
16b
100
AcDbEntity
  8
Layer_1
 62
7
100
AcDbPolyline
 90
2
 70
1
 10
18.158330
 20
8.036678
 30
0.0
 10
18.158330
 20
7.766930
 30
0.0
  0
SPLINE
  5
16c
100
AcDbEntity
  8
Layer_1
 62
7
100
AcDbSpline
 70
8
 71
3
 72
8
 73
4
 74
0
 40
0
 40
0
 40
0
 40
0
 40
1
 40
1
 40
1
 40
1
 10
17.939738
 20
8.701735
 30
0.0
 10
17.937668
 20
8.857804
 30
0.0
 10
17.893743
 20
8.982349
 30
0.0
 10
17.807963
 20
9.075369
 30
0.0
  0
SPLINE
  5
16d
100
AcDbEntity
  8
Layer_1
 62
7
100
AcDbSpline
 70
8
 71
3
 72
8
 73
4
 74
0
 40
0
 40
0
 40
0
 40
0
 40
1
 40
1
 40
1
 40
1
 10
17.807963
 20
9.075369
 30
0.0
 10
17.723213
 20
9.168389
 30
0.0
 10
17.610558
 20
9.214900
 30
0.0
 10
17.469999
 20
9.214900
 30
0.0
  0
SPLINE
  5
16e
100
AcDbEntity
  8
Layer_1
 62
7
100
AcDbSpline
 70
8
 71
3
 72
8
 73
4
 74
0
 40
0
 40
0
 40
0
 40
0
 40
1
 40
1
 40
1
 40
1
 10
17.469999
 20
9.214900
 30
0.0
 10
17.310837
 20
9.214900
 30
0.0
 10
17.183196
 20
9.169942
 30
0.0
 10
17.087077
 20
9.080026
 30
0.0
  0
SPLINE
  5
16f
100
AcDbEntity
  8
Layer_1
 62
7
100
AcDbSpline
 70
8
 71
3
 72
8
 73
4
 74
0
 40
0
 40
0
 40
0
 40
0
 40
1
 40
1
 40
1
 40
1
 10
17.087077
 20
9.080026
 30
0.0
 10
16.991992
 20
8.990110
 30
0.0
 10
16.937216
 20
8.863505
 30
0.0
 10
16.922747
 20
8.700211
 30
0.0
  0
LWPOLYLINE
  5
170
100
AcDbEntity
  8
Layer_1
 62
7
100
AcDbPolyline
 90
2
 70
1
 10
18.224994
 20
8.618028
 30
0.0
 10
18.224994
 20
8.618028
 30
0.0
  0
LWPOLYLINE
  5
171
100
AcDbEntity
  8
Layer_1
 62
7
100
AcDbPolyline
 90
3
 70
1
 10
16.922747
 20
8.700211
 30
0.0
 10
17.939738
 20
8.703033
 30
0.0
 10
17.939738
 20
8.701735
 30
0.0
  0
SPLINE
  5
172
100
AcDbEntity
  8
Layer_1
 62
7
100
AcDbSpline
 70
8
 71
3
 72
8
 73
4
 74
0
 40
0
 40
0
 40
0
 40
0
 40
1
 40
1
 40
1
 40
1
 10
18.686910
 20
9.151343
 30
0.0
 10
18.746856
 20
9.254693
 30
0.0
 10
18.822304
 20
9.331166
 30
0.0
 10
18.913255
 20
9.380762
 30
0.0
  0
SPLINE
  5
173
100
AcDbEntity
  8
Layer_1
 62
7
100
AcDbSpline
 70
8
 71
3
 72
8
 73
4
 74
0
 40
0
 40
0
 40
0
 40
0
 40
1
 40
1
 40
1
 40
1
 10
18.913255
 20
9.380762
 30
0.0
 10
19.005239
 20
9.431411
 30
0.0
 10
19.114793
 20
9.456736
 30
0.0
 10
19.241917
 20
9.456736
 30
0.0
  0
SPLINE
  5
174
100
AcDbEntity
  8
Layer_1
 62
7
100
AcDbSpline
 70
8
 71
3
 72
8
 73
4
 74
0
 40
0
 40
0
 40
0
 40
0
 40
1
 40
1
 40
1
 40
1
 10
19.241917
 20
9.456736
 30
0.0
 10
19.452756
 20
9.456736
 30
0.0
 10
19.623804
 20
9.373019
 30
0.0
 10
19.755062
 20
9.205586
 30
0.0
  0
SPLINE
  5
175
100
AcDbEntity
  8
Layer_1
 62
7
100
AcDbSpline
 70
8
 71
3
 72
8
 73
4
 74
0
 40
0
 40
0
 40
0
 40
0
 40
1
 40
1
 40
1
 40
1
 10
19.755062
 20
9.205586
 30
0.0
 10
19.887354
 20
9.038153
 30
0.0
 10
19.953501
 20
8.818011
 30
0.0
 10
19.953501
 20
8.545158
 30
0.0
  0
SPLINE
  5
176
100
AcDbEntity
  8
Layer_1
 62
7
100
AcDbSpline
 70
8
 71
3
 72
8
 73
4
 74
0
 40
0
 40
0
 40
0
 40
0
 40
1
 40
1
 40
1
 40
1
 10
19.953501
 20
8.545158
 30
0.0
 10
19.953501
 20
8.272306
 30
0.0
 10
19.887354
 20
8.052163
 30
0.0
 10
19.755062
 20
7.884730
 30
0.0
  0
SPLINE
  5
177
100
AcDbEntity
  8
Layer_1
 62
7
100
AcDbSpline
 70
8
 71
3
 72
8
 73
4
 74
0
 40
0
 40
0
 40
0
 40
0
 40
1
 40
1
 40
1
 40
1
 10
19.755062
 20
7.884730
 30
0.0
 10
19.623804
 20
7.717316
 30
0.0
 10
19.452756
 20
7.633609
 30
0.0
 10
19.241917
 20
7.633609
 30
0.0
  0
SPLINE
  5
178
100
AcDbEntity
  8
Layer_1
 62
7
100
AcDbSpline
 70
8
 71
3
 72
8
 73
4
 74
0
 40
0
 40
0
 40
0
 40
0
 40
1
 40
1
 40
1
 40
1
 10
19.241917
 20
7.633609
 30
0.0
 10
19.114793
 20
7.633609
 30
0.0
 10
19.005239
 20
7.658406
 30
0.0
 10
18.913255
 20
7.708002
 30
0.0
  0
SPLINE
  5
179
100
AcDbEntity
  8
Layer_1
 62
7
100
AcDbSpline
 70
8
 71
3
 72
8
 73
4
 74
0
 40
0
 40
0
 40
0
 40
0
 40
1
 40
1
 40
1
 40
1
 10
18.913255
 20
7.708002
 30
0.0
 10
18.822304
 20
7.758652
 30
0.0
 10
18.746856
 20
7.835651
 30
0.0
 10
18.686910
 20
7.939001
 30
0.0
  0
LWPOLYLINE
  5
17a
100
AcDbEntity
  8
Layer_1
 62
7
100
AcDbPolyline
 90
6
 70
1
 10
18.686910
 20
7.939001
 30
0.0
 10
18.686910
 20
7.018138
 30
0.0
 10
18.400107
 20
7.018138
 30
0.0
 10
18.400107
 20
9.414882
 30
0.0
 10
18.686910
 20
9.414882
 30
0.0
 10
18.686910
 20
9.151343
 30
0.0
  0
SPLINE
  5
17b
100
AcDbEntity
  8
Layer_1
 62
7
100
AcDbSpline
 70
8
 71
3
 72
8
 73
4
 74
0
 40
0
 40
0
 40
0
 40
0
 40
1
 40
1
 40
1
 40
1
 10
19.657393
 20
8.545158
 30
0.0
 10
19.657393
 20
8.754962
 30
0.0
 10
19.613985
 20
8.919300
 30
0.0
 10
19.527170
 20
9.038172
 30
0.0
  0
SPLINE
  5
17c
100
AcDbEntity
  8
Layer_1
 62
7
100
AcDbSpline
 70
8
 71
3
 72
8
 73
4
 74
0
 40
0
 40
0
 40
0
 40
0
 40
1
 40
1
 40
1
 40
1
 10
19.527170
 20
9.038172
 30
0.0
 10
19.441388
 20
9.158060
 30
0.0
 10
19.323048
 20
9.218004
 30
0.0
 10
19.172151
 20
9.218004
 30
0.0
  0
SPLINE
  5
17d
100
AcDbEntity
  8
Layer_1
 62
7
100
AcDbSpline
 70
8
 71
3
 72
8
 73
4
 74
0
 40
0
 40
0
 40
0
 40
0
 40
1
 40
1
 40
1
 40
1
 10
19.172151
 20
9.218004
 30
0.0
 10
19.021257
 20
9.218004
 30
0.0
 10
18.902402
 20
9.158060
 30
0.0
 10
18.815586
 20
9.038172
 30
0.0
  0
SPLINE
  5
17e
100
AcDbEntity
  8
Layer_1
 62
7
100
AcDbSpline
 70
8
 71
3
 72
8
 73
4
 74
0
 40
0
 40
0
 40
0
 40
0
 40
1
 40
1
 40
1
 40
1
 10
18.815586
 20
9.038172
 30
0.0
 10
18.729802
 20
8.919300
 30
0.0
 10
18.686910
 20
8.754962
 30
0.0
 10
18.686910
 20
8.545158
 30
0.0
  0
SPLINE
  5
17f
100
AcDbEntity
  8
Layer_1
 62
7
100
AcDbSpline
 70
8
 71
3
 72
8
 73
4
 74
0
 40
0
 40
0
 40
0
 40
0
 40
1
 40
1
 40
1
 40
1
 10
18.686910
 20
8.545158
 30
0.0
 10
18.686910
 20
8.335354
 30
0.0
 10
18.729802
 20
8.170508
 30
0.0
 10
18.815586
 20
8.050620
 30
0.0
  0
SPLINE
  5
180
100
AcDbEntity
  8
Layer_1
 62
7
100
AcDbSpline
 70
8
 71
3
 72
8
 73
4
 74
0
 40
0
 40
0
 40
0
 40
0
 40
1
 40
1
 40
1
 40
1
 10
18.815586
 20
8.050620
 30
0.0
 10
18.902402
 20
7.931767
 30
0.0
 10
19.021257
 20
7.872340
 30
0.0
 10
19.172151
 20
7.872340
 30
0.0
  0
SPLINE
  5
181
100
AcDbEntity
  8
Layer_1
 62
7
100
AcDbSpline
 70
8
 71
3
 72
8
 73
4
 74
0
 40
0
 40
0
 40
0
 40
0
 40
1
 40
1
 40
1
 40
1
 10
19.172151
 20
7.872340
 30
0.0
 10
19.323048
 20
7.872340
 30
0.0
 10
19.441388
 20
7.931767
 30
0.0
 10
19.527170
 20
8.050620
 30
0.0
  0
SPLINE
  5
182
100
AcDbEntity
  8
Layer_1
 62
7
100
AcDbSpline
 70
8
 71
3
 72
8
 73
4
 74
0
 40
0
 40
0
 40
0
 40
0
 40
1
 40
1
 40
1
 40
1
 10
19.527170
 20
8.050620
 30
0.0
 10
19.613985
 20
8.170508
 30
0.0
 10
19.657393
 20
8.335354
 30
0.0
 10
19.657393
 20
8.545158
 30
0.0
  0
LWPOLYLINE
  5
183
100
AcDbEntity
  8
Layer_1
 62
7
100
AcDbPolyline
 90
2
 70
1
 10
18.686910
 20
7.939001
 30
0.0
 10
18.686910
 20
7.939001
 30
0.0
  0
LWPOLYLINE
  5
184
100
AcDbEntity
  8
Layer_1
 62
7
100
AcDbPolyline
 90
2
 70
1
 10
19.657393
 20
8.545158
 30
0.0
 10
19.657393
 20
8.545158
 30
0.0
  0
SPLINE
  5
185
100
AcDbEntity
  8
Layer_1
 62
7
100
AcDbSpline
 70
8
 71
3
 72
8
 73
4
 74
0
 40
0
 40
0
 40
0
 40
0
 40
1
 40
1
 40
1
 40
1
 10
20.750282
 20
9.853625
 30
0.0
 10
20.647963
 20
9.853625
 30
0.0
 10
20.576649
 20
9.832948
 30
0.0
 10
20.536340
 20
9.791593
 30
0.0
  0
SPLINE
  5
186
100
AcDbEntity
  8
Layer_1
 62
7
100
AcDbSpline
 70
8
 71
3
 72
8
 73
4
 74
0
 40
0
 40
0
 40
0
 40
0
 40
1
 40
1
 40
1
 40
1
 10
20.536340
 20
9.791593
 30
0.0
 10
20.497066
 20
9.750256
 30
0.0
 10
20.477429
 20
9.675844
 30
0.0
 10
20.477429
 20
9.568355
 30
0.0
  0
LWPOLYLINE
  5
187
100
AcDbEntity
  8
Layer_1
 62
7
100
AcDbPolyline
 90
6
 70
1
 10
20.753383
 20
10.090805
 30
0.0
 10
21.547133
 20
10.090805
 30
0.0
 10
21.547133
 20
7.678567
 30
0.0
 10
21.260328
 20
7.678567
 30
0.0
 10
21.260328
 20
9.853625
 30
0.0
 10
20.750282
 20
9.853625
 30
0.0
  0
SPLINE
  5
188
100
AcDbEntity
  8
Layer_1
 62
7
100
AcDbSpline
 70
8
 71
3
 72
8
 73
4
 74
0
 40
0
 40
0
 40
0
 40
0
 40
1
 40
1
 40
1
 40
1
 10
20.190627
 20
9.535815
 30
0.0
 10
20.190627
 20
9.729080
 30
0.0
 10
20.235585
 20
9.869636
 30
0.0
 10
20.325501
 20
9.957483
 30
0.0
  0
SPLINE
  5
189
100
AcDbEntity
  8
Layer_1
 62
7
100
AcDbSpline
 70
8
 71
3
 72
8
 73
4
 74
0
 40
0
 40
0
 40
0
 40
0
 40
1
 40
1
 40
1
 40
1
 10
20.325501
 20
9.957483
 30
0.0
 10
20.415418
 20
10.046364
 30
0.0
 10
20.558046
 20
10.090805
 30
0.0
 10
20.753383
 20
10.090805
 30
0.0
  0
LWPOLYLINE
  5
18a
100
AcDbEntity
  8
Layer_1
 62
7
100
AcDbPolyline
 90
12
 70
1
 10
20.477429
 20
9.568355
 30
0.0
 10
20.477429
 20
9.414882
 30
0.0
 10
20.947168
 20
9.414882
 30
0.0
 10
20.947168
 20
9.193197
 30
0.0
 10
20.477429
 20
9.193197
 30
0.0
 10
20.477429
 20
7.678567
 30
0.0
 10
20.190627
 20
7.678567
 30
0.0
 10
20.190627
 20
9.193197
 30
0.0
 10
19.917774
 20
9.193197
 30
0.0
 10
19.917774
 20
9.414882
 30
0.0
 10
20.190627
 20
9.414882
 30
0.0
 10
20.190627
 20
9.535815
 30
0.0
  0
LWPOLYLINE
  5
18b
100
AcDbEntity
  8
Layer_1
 62
7
100
AcDbPolyline
 90
2
 70
1
 10
20.753383
 20
10.090805
 30
0.0
 10
20.753383
 20
10.090805
 30
0.0
  0
SPLINE
  5
18c
100
AcDbEntity
  8
Layer_1
 62
7
100
AcDbSpline
 70
8
 71
3
 72
8
 73
4
 74
0
 40
0
 40
0
 40
0
 40
0
 40
1
 40
1
 40
1
 40
1
 10
22.725216
 20
7.939001
 30
0.0
 10
22.665272
 20
7.835651
 30
0.0
 10
22.589308
 20
7.758652
 30
0.0
 10
22.497325
 20
7.708002
 30
0.0
  0
SPLINE
  5
18d
100
AcDbEntity
  8
Layer_1
 62
7
100
AcDbSpline
 70
8
 71
3
 72
8
 73
4
 74
0
 40
0
 40
0
 40
0
 40
0
 40
1
 40
1
 40
1
 40
1
 10
22.497325
 20
7.708002
 30
0.0
 10
22.406374
 20
7.658406
 30
0.0
 10
22.296820
 20
7.633609
 30
0.0
 10
22.168663
 20
7.633609
 30
0.0
  0
SPLINE
  5
18e
100
AcDbEntity
  8
Layer_1
 62
7
100
AcDbSpline
 70
8
 71
3
 72
8
 73
4
 74
0
 40
0
 40
0
 40
0
 40
0
 40
1
 40
1
 40
1
 40
1
 10
22.168663
 20
7.633609
 30
0.0
 10
21.958857
 20
7.633609
 30
0.0
 10
21.787808
 20
7.717316
 30
0.0
 10
21.655515
 20
7.884730
 30
0.0
  0
SPLINE
  5
18f
100
AcDbEntity
  8
Layer_1
 62
7
100
AcDbSpline
 70
8
 71
3
 72
8
 73
4
 74
0
 40
0
 40
0
 40
0
 40
0
 40
1
 40
1
 40
1
 40
1
 10
21.655515
 20
7.884730
 30
0.0
 10
21.524257
 20
8.052163
 30
0.0
 10
21.458628
 20
8.272306
 30
0.0
 10
21.458628
 20
8.545158
 30
0.0
  0
SPLINE
  5
190
100
AcDbEntity
  8
Layer_1
 62
7
100
AcDbSpline
 70
8
 71
3
 72
8
 73
4
 74
0
 40
0
 40
0
 40
0
 40
0
 40
1
 40
1
 40
1
 40
1
 10
21.458628
 20
8.545158
 30
0.0
 10
21.458628
 20
8.818011
 30
0.0
 10
21.524257
 20
9.038153
 30
0.0
 10
21.655515
 20
9.205586
 30
0.0
  0
SPLINE
  5
191
100
AcDbEntity
  8
Layer_1
 62
7
100
AcDbSpline
 70
8
 71
3
 72
8
 73
4
 74
0
 40
0
 40
0
 40
0
 40
0
 40
1
 40
1
 40
1
 40
1
 10
21.655515
 20
9.205586
 30
0.0
 10
21.787808
 20
9.373019
 30
0.0
 10
21.958857
 20
9.456736
 30
0.0
 10
22.168663
 20
9.456736
 30
0.0
  0
SPLINE
  5
192
100
AcDbEntity
  8
Layer_1
 62
7
100
AcDbSpline
 70
8
 71
3
 72
8
 73
4
 74
0
 40
0
 40
0
 40
0
 40
0
 40
1
 40
1
 40
1
 40
1
 10
22.168663
 20
9.456736
 30
0.0
 10
22.296820
 20
9.456736
 30
0.0
 10
22.406374
 20
9.431411
 30
0.0
 10
22.497325
 20
9.380762
 30
0.0
  0
SPLINE
  5
193
100
AcDbEntity
  8
Layer_1
 62
7
100
AcDbSpline
 70
8
 71
3
 72
8
 73
4
 74
0
 40
0
 40
0
 40
0
 40
0
 40
1
 40
1
 40
1
 40
1
 10
22.497325
 20
9.380762
 30
0.0
 10
22.589308
 20
9.331166
 30
0.0
 10
22.665272
 20
9.254693
 30
0.0
 10
22.725216
 20
9.151343
 30
0.0
  0
LWPOLYLINE
  5
194
100
AcDbEntity
  8
Layer_1
 62
7
100
AcDbPolyline
 90
6
 70
1
 10
22.725216
 20
9.151343
 30
0.0
 10
22.725216
 20
10.090805
 30
0.0
 10
23.010472
 20
10.090805
 30
0.0
 10
23.010472
 20
7.678567
 30
0.0
 10
22.725216
 20
7.678567
 30
0.0
 10
22.725216
 20
7.939001
 30
0.0
  0
SPLINE
  5
195
100
AcDbEntity
  8
Layer_1
 62
7
100
AcDbSpline
 70
8
 71
3
 72
8
 73
4
 74
0
 40
0
 40
0
 40
0
 40
0
 40
1
 40
1
 40
1
 40
1
 10
21.753184
 20
8.545158
 30
0.0
 10
21.753184
 20
8.335354
 30
0.0
 10
21.796075
 20
8.170508
 30
0.0
 10
21.881857
 20
8.050620
 30
0.0
  0
SPLINE
  5
196
100
AcDbEntity
  8
Layer_1
 62
7
100
AcDbSpline
 70
8
 71
3
 72
8
 73
4
 74
0
 40
0
 40
0
 40
0
 40
0
 40
1
 40
1
 40
1
 40
1
 10
21.881857
 20
8.050620
 30
0.0
 10
21.968674
 20
7.931767
 30
0.0
 10
22.087530
 20
7.872340
 30
0.0
 10
22.238425
 20
7.872340
 30
0.0
  0
SPLINE
  5
197
100
AcDbEntity
  8
Layer_1
 62
7
100
AcDbSpline
 70
8
 71
3
 72
8
 73
4
 74
0
 40
0
 40
0
 40
0
 40
0
 40
1
 40
1
 40
1
 40
1
 10
22.238425
 20
7.872340
 30
0.0
 10
22.389320
 20
7.872340
 30
0.0
 10
22.508176
 20
7.931767
 30
0.0
 10
22.594993
 20
8.050620
 30
0.0
  0
SPLINE
  5
198
100
AcDbEntity
  8
Layer_1
 62
7
100
AcDbSpline
 70
8
 71
3
 72
8
 73
4
 74
0
 40
0
 40
0
 40
0
 40
0
 40
1
 40
1
 40
1
 40
1
 10
22.594993
 20
8.050620
 30
0.0
 10
22.681809
 20
8.170508
 30
0.0
 10
22.725216
 20
8.335354
 30
0.0
 10
22.725216
 20
8.545158
 30
0.0
  0
SPLINE
  5
199
100
AcDbEntity
  8
Layer_1
 62
7
100
AcDbSpline
 70
8
 71
3
 72
8
 73
4
 74
0
 40
0
 40
0
 40
0
 40
0
 40
1
 40
1
 40
1
 40
1
 10
22.725216
 20
8.545158
 30
0.0
 10
22.725216
 20
8.754962
 30
0.0
 10
22.681809
 20
8.919300
 30
0.0
 10
22.594993
 20
9.038172
 30
0.0
  0
SPLINE
  5
19a
100
AcDbEntity
  8
Layer_1
 62
7
100
AcDbSpline
 70
8
 71
3
 72
8
 73
4
 74
0
 40
0
 40
0
 40
0
 40
0
 40
1
 40
1
 40
1
 40
1
 10
22.594993
 20
9.038172
 30
0.0
 10
22.508176
 20
9.158060
 30
0.0
 10
22.389320
 20
9.218004
 30
0.0
 10
22.238425
 20
9.218004
 30
0.0
  0
SPLINE
  5
19b
100
AcDbEntity
  8
Layer_1
 62
7
100
AcDbSpline
 70
8
 71
3
 72
8
 73
4
 74
0
 40
0
 40
0
 40
0
 40
0
 40
1
 40
1
 40
1
 40
1
 10
22.238425
 20
9.218004
 30
0.0
 10
22.087530
 20
9.218004
 30
0.0
 10
21.968674
 20
9.158060
 30
0.0
 10
21.881857
 20
9.038172
 30
0.0
  0
SPLINE
  5
19c
100
AcDbEntity
  8
Layer_1
 62
7
100
AcDbSpline
 70
8
 71
3
 72
8
 73
4
 74
0
 40
0
 40
0
 40
0
 40
0
 40
1
 40
1
 40
1
 40
1
 10
21.881857
 20
9.038172
 30
0.0
 10
21.796075
 20
8.919300
 30
0.0
 10
21.753184
 20
8.754962
 30
0.0
 10
21.753184
 20
8.545158
 30
0.0
  0
LWPOLYLINE
  5
19d
100
AcDbEntity
  8
Layer_1
 62
7
100
AcDbPolyline
 90
2
 70
1
 10
22.725216
 20
9.151343
 30
0.0
 10
22.725216
 20
9.151343
 30
0.0
  0
SPLINE
  5
19e
100
AcDbEntity
  8
Layer_1
 62
7
100
AcDbSpline
 70
8
 71
3
 72
8
 73
4
 74
0
 40
0
 40
0
 40
0
 40
0
 40
1
 40
1
 40
1
 40
1
 10
23.988638
 20
9.214900
 30
0.0
 10
23.835675
 20
9.214900
 30
0.0
 10
23.714752
 20
9.154956
 30
0.0
 10
23.625869
 20
9.035068
 30
0.0
  0
SPLINE
  5
19f
100
AcDbEntity
  8
Layer_1
 62
7
100
AcDbSpline
 70
8
 71
3
 72
8
 73
4
 74
0
 40
0
 40
0
 40
0
 40
0
 40
1
 40
1
 40
1
 40
1
 10
23.625869
 20
9.035068
 30
0.0
 10
23.536986
 20
8.916214
 30
0.0
 10
23.492545
 20
8.752911
 30
0.0
 10
23.492545
 20
8.545158
 30
0.0
  0
SPLINE
  5
1a0
100
AcDbEntity
  8
Layer_1
 62
7
100
AcDbSpline
 70
8
 71
3
 72
8
 73
4
 74
0
 40
0
 40
0
 40
0
 40
0
 40
1
 40
1
 40
1
 40
1
 10
23.492545
 20
8.545158
 30
0.0
 10
23.492545
 20
8.337424
 30
0.0
 10
23.536469
 20
8.173613
 30
0.0
 10
23.624317
 20
8.053725
 30
0.0
  0
SPLINE
  5
1a1
100
AcDbEntity
  8
Layer_1
 62
7
100
AcDbSpline
 70
8
 71
3
 72
8
 73
4
 74
0
 40
0
 40
0
 40
0
 40
0
 40
1
 40
1
 40
1
 40
1
 10
23.624317
 20
8.053725
 30
0.0
 10
23.713202
 20
7.934871
 30
0.0
 10
23.834642
 20
7.875445
 30
0.0
 10
23.988638
 20
7.875445
 30
0.0
  0
SPLINE
  5
1a2
100
AcDbEntity
  8
Layer_1
 62
7
100
AcDbSpline
 70
8
 71
3
 72
8
 73
4
 74
0
 40
0
 40
0
 40
0
 40
0
 40
1
 40
1
 40
1
 40
1
 10
23.988638
 20
7.875445
 30
0.0
 10
24.140565
 20
7.875445
 30
0.0
 10
24.260972
 20
7.935389
 30
0.0
 10
24.349857
 20
8.055277
 30
0.0
  0
SPLINE
  5
1a3
100
AcDbEntity
  8
Layer_1
 62
7
100
AcDbSpline
 70
8
 71
3
 72
8
 73
4
 74
0
 40
0
 40
0
 40
0
 40
0
 40
1
 40
1
 40
1
 40
1
 10
24.349857
 20
8.055277
 30
0.0
 10
24.438740
 20
8.175165
 30
0.0
 10
24.483181
 20
8.338459
 30
0.0
 10
24.483181
 20
8.545158
 30
0.0
  0
SPLINE
  5
1a4
100
AcDbEntity
  8
Layer_1
 62
7
100
AcDbSpline
 70
8
 71
3
 72
8
 73
4
 74
0
 40
0
 40
0
 40
0
 40
0
 40
1
 40
1
 40
1
 40
1
 10
24.483181
 20
8.545158
 30
0.0
 10
24.483181
 20
8.750842
 30
0.0
 10
24.438740
 20
8.913627
 30
0.0
 10
24.349857
 20
9.033515
 30
0.0
  0
SPLINE
  5
1a5
100
AcDbEntity
  8
Layer_1
 62
7
100
AcDbSpline
 70
8
 71
3
 72
8
 73
4
 74
0
 40
0
 40
0
 40
0
 40
0
 40
1
 40
1
 40
1
 40
1
 10
24.349857
 20
9.033515
 30
0.0
 10
24.260972
 20
9.154438
 30
0.0
 10
24.140565
 20
9.214900
 30
0.0
 10
23.988638
 20
9.214900
 30
0.0
  0
LWPOLYLINE
  5
1a6
100
AcDbEntity
  8
Layer_1
 62
7
100
AcDbPolyline
 90
2
 70
1
 10
21.753184
 20
8.545158
 30
0.0
 10
21.753184
 20
8.545158
 30
0.0
  0
SPLINE
  5
1a7
100
AcDbEntity
  8
Layer_1
 62
7
100
AcDbSpline
 70
8
 71
3
 72
8
 73
4
 74
0
 40
0
 40
0
 40
0
 40
0
 40
1
 40
1
 40
1
 40
1
 10
23.988638
 20
9.456736
 30
0.0
 10
24.236685
 20
9.456736
 30
0.0
 10
24.431505
 20
9.376124
 30
0.0
 10
24.573097
 20
9.214900
 30
0.0
  0
SPLINE
  5
1a8
100
AcDbEntity
  8
Layer_1
 62
7
100
AcDbSpline
 70
8
 71
3
 72
8
 73
4
 74
0
 40
0
 40
0
 40
0
 40
0
 40
1
 40
1
 40
1
 40
1
 10
24.573097
 20
9.214900
 30
0.0
 10
24.714690
 20
9.053657
 30
0.0
 10
24.785487
 20
8.830410
 30
0.0
 10
24.785487
 20
8.545158
 30
0.0
  0
SPLINE
  5
1a9
100
AcDbEntity
  8
Layer_1
 62
7
100
AcDbSpline
 70
8
 71
3
 72
8
 73
4
 74
0
 40
0
 40
0
 40
0
 40
0
 40
1
 40
1
 40
1
 40
1
 10
24.785487
 20
8.545158
 30
0.0
 10
24.785487
 20
8.260942
 30
0.0
 10
24.714690
 20
8.037704
 30
0.0
 10
24.573097
 20
7.875445
 30
0.0
  0
SPLINE
  5
1aa
100
AcDbEntity
  8
Layer_1
 62
7
100
AcDbSpline
 70
8
 71
3
 72
8
 73
4
 74
0
 40
0
 40
0
 40
0
 40
0
 40
1
 40
1
 40
1
 40
1
 10
24.573097
 20
7.875445
 30
0.0
 10
24.431505
 20
7.714221
 30
0.0
 10
24.236685
 20
7.633609
 30
0.0
 10
23.988638
 20
7.633609
 30
0.0
  0
SPLINE
  5
1ab
100
AcDbEntity
  8
Layer_1
 62
7
100
AcDbSpline
 70
8
 71
3
 72
8
 73
4
 74
0
 40
0
 40
0
 40
0
 40
0
 40
1
 40
1
 40
1
 40
1
 10
23.988638
 20
7.633609
 30
0.0
 10
23.739558
 20
7.633609
 30
0.0
 10
23.544220
 20
7.714221
 30
0.0
 10
23.402626
 20
7.875445
 30
0.0
  0
SPLINE
  5
1ac
100
AcDbEntity
  8
Layer_1
 62
7
100
AcDbSpline
 70
8
 71
3
 72
8
 73
4
 74
0
 40
0
 40
0
 40
0
 40
0
 40
1
 40
1
 40
1
 40
1
 10
23.402626
 20
7.875445
 30
0.0
 10
23.262066
 20
8.037704
 30
0.0
 10
23.191786
 20
8.260942
 30
0.0
 10
23.191786
 20
8.545158
 30
0.0
  0
SPLINE
  5
1ad
100
AcDbEntity
  8
Layer_1
 62
7
100
AcDbSpline
 70
8
 71
3
 72
8
 73
4
 74
0
 40
0
 40
0
 40
0
 40
0
 40
1
 40
1
 40
1
 40
1
 10
23.191786
 20
8.545158
 30
0.0
 10
23.191786
 20
8.830410
 30
0.0
 10
23.262066
 20
9.053657
 30
0.0
 10
23.402626
 20
9.214900
 30
0.0
  0
SPLINE
  5
1ae
100
AcDbEntity
  8
Layer_1
 62
7
100
AcDbSpline
 70
8
 71
3
 72
8
 73
4
 74
0
 40
0
 40
0
 40
0
 40
0
 40
1
 40
1
 40
1
 40
1
 10
23.402626
 20
9.214900
 30
0.0
 10
23.544220
 20
9.376124
 30
0.0
 10
23.739558
 20
9.456736
 30
0.0
 10
23.988638
 20
9.456736
 30
0.0
  0
LWPOLYLINE
  5
1af
100
AcDbEntity
  8
Layer_1
 62
7
100
AcDbPolyline
 90
2
 70
1
 10
23.988638
 20
9.214900
 30
0.0
 10
23.988638
 20
9.214900
 30
0.0
  0
LWPOLYLINE
  5
1b0
100
AcDbEntity
  8
Layer_1
 62
7
100
AcDbPolyline
 90
2
 70
1
 10
23.988638
 20
9.456736
 30
0.0
 10
23.988638
 20
9.456736
 30
0.0
  0
SPLINE
  5
1b1
100
AcDbEntity
  8
Layer_1
 62
7
100
AcDbSpline
 70
8
 71
3
 72
8
 73
4
 74
0
 40
0
 40
0
 40
0
 40
0
 40
1
 40
1
 40
1
 40
1
 10
25.259809
 20
7.647550
 30
0.0
 10
25.259809
 20
7.426382
 30
0.0
 10
25.217434
 20
7.266183
 30
0.0
 10
25.132685
 20
7.166954
 30
0.0
  0
SPLINE
  5
1b2
100
AcDbEntity
  8
Layer_1
 62
7
100
AcDbSpline
 70
8
 71
3
 72
8
 73
4
 74
0
 40
0
 40
0
 40
0
 40
0
 40
1
 40
1
 40
1
 40
1
 10
25.132685
 20
7.166954
 30
0.0
 10
25.048968
 20
7.067744
 30
0.0
 10
24.913576
 20
7.018138
 30
0.0
 10
24.726508
 20
7.018138
 30
0.0
  0
LWPOLYLINE
  5
1b3
100
AcDbEntity
  8
Layer_1
 62
7
100
AcDbPolyline
 90
3
 70
1
 10
24.974556
 20
9.414882
 30
0.0
 10
25.259809
 20
9.414882
 30
0.0
 10
25.259809
 20
7.647550
 30
0.0
  0
SPLINE
  5
1b4
100
AcDbEntity
  8
Layer_1
 62
7
100
AcDbSpline
 70
8
 71
3
 72
8
 73
4
 74
0
 40
0
 40
0
 40
0
 40
0
 40
1
 40
1
 40
1
 40
1
 10
24.693951
 20
7.259975
 30
0.0
 10
24.802473
 20
7.259975
 30
0.0
 10
24.876371
 20
7.285299
 30
0.0
 10
24.915645
 20
7.335949
 30
0.0
  0
SPLINE
  5
1b5
100
AcDbEntity
  8
Layer_1
 62
7
100
AcDbSpline
 70
8
 71
3
 72
8
 73
4
 74
0
 40
0
 40
0
 40
0
 40
0
 40
1
 40
1
 40
1
 40
1
 10
24.915645
 20
7.335949
 30
0.0
 10
24.954919
 20
7.385545
 30
0.0
 10
24.974556
 20
7.489412
 30
0.0
 10
24.974556
 20
7.647550
 30
0.0
  0
LWPOLYLINE
  5
1b6
100
AcDbEntity
  8
Layer_1
 62
7
100
AcDbPolyline
 90
4
 70
1
 10
24.726508
 20
7.018138
 30
0.0
 10
24.617988
 20
7.018138
 30
0.0
 10
24.617988
 20
7.259975
 30
0.0
 10
24.693951
 20
7.259975
 30
0.0
  0
LWPOLYLINE
  5
1b7
100
AcDbEntity
  8
Layer_1
 62
7
100
AcDbPolyline
 90
3
 70
1
 10
24.974556
 20
7.647550
 30
0.0
 10
24.974556
 20
9.414882
 30
0.0
 10
24.974556
 20
9.414882
 30
0.0
  0
SPLINE
  5
1b8
100
AcDbEntity
  8
Layer_1
 62
7
100
AcDbSpline
 70
8
 71
3
 72
8
 73
4
 74
0
 40
0
 40
0
 40
0
 40
0
 40
1
 40
1
 40
1
 40
1
 10
26.245727
 20
9.214900
 30
0.0
 10
26.092764
 20
9.214900
 30
0.0
 10
25.971841
 20
9.154956
 30
0.0
 10
25.882958
 20
9.035068
 30
0.0
  0
SPLINE
  5
1b9
100
AcDbEntity
  8
Layer_1
 62
7
100
AcDbSpline
 70
8
 71
3
 72
8
 73
4
 74
0
 40
0
 40
0
 40
0
 40
0
 40
1
 40
1
 40
1
 40
1
 10
25.882958
 20
9.035068
 30
0.0
 10
25.794073
 20
8.916214
 30
0.0
 10
25.749631
 20
8.752911
 30
0.0
 10
25.749631
 20
8.545158
 30
0.0
  0
SPLINE
  5
1ba
100
AcDbEntity
  8
Layer_1
 62
7
100
AcDbSpline
 70
8
 71
3
 72
8
 73
4
 74
0
 40
0
 40
0
 40
0
 40
0
 40
1
 40
1
 40
1
 40
1
 10
25.749631
 20
8.545158
 30
0.0
 10
25.749631
 20
8.337424
 30
0.0
 10
25.793556
 20
8.173613
 30
0.0
 10
25.881406
 20
8.053725
 30
0.0
  0
SPLINE
  5
1bb
100
AcDbEntity
  8
Layer_1
 62
7
100
AcDbSpline
 70
8
 71
3
 72
8
 73
4
 74
0
 40
0
 40
0
 40
0
 40
0
 40
1
 40
1
 40
1
 40
1
 10
25.881406
 20
8.053725
 30
0.0
 10
25.970291
 20
7.934871
 30
0.0
 10
26.091731
 20
7.875445
 30
0.0
 10
26.245727
 20
7.875445
 30
0.0
  0
SPLINE
  5
1bc
100
AcDbEntity
  8
Layer_1
 62
7
100
AcDbSpline
 70
8
 71
3
 72
8
 73
4
 74
0
 40
0
 40
0
 40
0
 40
0
 40
1
 40
1
 40
1
 40
1
 10
26.245727
 20
7.875445
 30
0.0
 10
26.397655
 20
7.875445
 30
0.0
 10
26.518060
 20
7.935389
 30
0.0
 10
26.606943
 20
8.055277
 30
0.0
  0
SPLINE
  5
1bd
100
AcDbEntity
  8
Layer_1
 62
7
100
AcDbSpline
 70
8
 71
3
 72
8
 73
4
 74
0
 40
0
 40
0
 40
0
 40
0
 40
1
 40
1
 40
1
 40
1
 10
26.606943
 20
8.055277
 30
0.0
 10
26.695828
 20
8.175165
 30
0.0
 10
26.740271
 20
8.338459
 30
0.0
 10
26.740271
 20
8.545158
 30
0.0
  0
SPLINE
  5
1be
100
AcDbEntity
  8
Layer_1
 62
7
100
AcDbSpline
 70
8
 71
3
 72
8
 73
4
 74
0
 40
0
 40
0
 40
0
 40
0
 40
1
 40
1
 40
1
 40
1
 10
26.740271
 20
8.545158
 30
0.0
 10
26.740271
 20
8.750842
 30
0.0
 10
26.695828
 20
8.913627
 30
0.0
 10
26.606943
 20
9.033515
 30
0.0
  0
SPLINE
  5
1bf
100
AcDbEntity
  8
Layer_1
 62
7
100
AcDbSpline
 70
8
 71
3
 72
8
 73
4
 74
0
 40
0
 40
0
 40
0
 40
0
 40
1
 40
1
 40
1
 40
1
 10
26.606943
 20
9.033515
 30
0.0
 10
26.518060
 20
9.154438
 30
0.0
 10
26.397655
 20
9.214900
 30
0.0
 10
26.245727
 20
9.214900
 30
0.0
  0
LWPOLYLINE
  5
1c0
100
AcDbEntity
  8
Layer_1
 62
7
100
AcDbPolyline
 90
6
 70
1
 10
24.974556
 20
10.090805
 30
0.0
 10
25.259809
 20
10.090805
 30
0.0
 10
25.259809
 20
9.729588
 30
0.0
 10
24.974556
 20
9.729588
 30
0.0
 10
24.974556
 20
10.090805
 30
0.0
 10
24.974556
 20
10.090805
 30
0.0
  0
SPLINE
  5
1c1
100
AcDbEntity
  8
Layer_1
 62
7
100
AcDbSpline
 70
8
 71
3
 72
8
 73
4
 74
0
 40
0
 40
0
 40
0
 40
0
 40
1
 40
1
 40
1
 40
1
 10
26.245727
 20
9.456736
 30
0.0
 10
26.493774
 20
9.456736
 30
0.0
 10
26.688594
 20
9.376124
 30
0.0
 10
26.830187
 20
9.214900
 30
0.0
  0
SPLINE
  5
1c2
100
AcDbEntity
  8
Layer_1
 62
7
100
AcDbSpline
 70
8
 71
3
 72
8
 73
4
 74
0
 40
0
 40
0
 40
0
 40
0
 40
1
 40
1
 40
1
 40
1
 10
26.830187
 20
9.214900
 30
0.0
 10
26.971779
 20
9.053657
 30
0.0
 10
27.042576
 20
8.830410
 30
0.0
 10
27.042576
 20
8.545158
 30
0.0
  0
SPLINE
  5
1c3
100
AcDbEntity
  8
Layer_1
 62
7
100
AcDbSpline
 70
8
 71
3
 72
8
 73
4
 74
0
 40
0
 40
0
 40
0
 40
0
 40
1
 40
1
 40
1
 40
1
 10
27.042576
 20
8.545158
 30
0.0
 10
27.042576
 20
8.260942
 30
0.0
 10
26.971779
 20
8.037704
 30
0.0
 10
26.830187
 20
7.875445
 30
0.0
  0
SPLINE
  5
1c4
100
AcDbEntity
  8
Layer_1
 62
7
100
AcDbSpline
 70
8
 71
3
 72
8
 73
4
 74
0
 40
0
 40
0
 40
0
 40
0
 40
1
 40
1
 40
1
 40
1
 10
26.830187
 20
7.875445
 30
0.0
 10
26.688594
 20
7.714221
 30
0.0
 10
26.493774
 20
7.633609
 30
0.0
 10
26.245727
 20
7.633609
 30
0.0
  0
SPLINE
  5
1c5
100
AcDbEntity
  8
Layer_1
 62
7
100
AcDbSpline
 70
8
 71
3
 72
8
 73
4
 74
0
 40
0
 40
0
 40
0
 40
0
 40
1
 40
1
 40
1
 40
1
 10
26.245727
 20
7.633609
 30
0.0
 10
25.996645
 20
7.633609
 30
0.0
 10
25.801308
 20
7.714221
 30
0.0
 10
25.659715
 20
7.875445
 30
0.0
  0
SPLINE
  5
1c6
100
AcDbEntity
  8
Layer_1
 62
7
100
AcDbSpline
 70
8
 71
3
 72
8
 73
4
 74
0
 40
0
 40
0
 40
0
 40
0
 40
1
 40
1
 40
1
 40
1
 10
25.659715
 20
7.875445
 30
0.0
 10
25.519155
 20
8.037704
 30
0.0
 10
25.448875
 20
8.260942
 30
0.0
 10
25.448875
 20
8.545158
 30
0.0
  0
SPLINE
  5
1c7
100
AcDbEntity
  8
Layer_1
 62
7
100
AcDbSpline
 70
8
 71
3
 72
8
 73
4
 74
0
 40
0
 40
0
 40
0
 40
0
 40
1
 40
1
 40
1
 40
1
 10
25.448875
 20
8.545158
 30
0.0
 10
25.448875
 20
8.830410
 30
0.0
 10
25.519155
 20
9.053657
 30
0.0
 10
25.659715
 20
9.214900
 30
0.0
  0
SPLINE
  5
1c8
100
AcDbEntity
  8
Layer_1
 62
7
100
AcDbSpline
 70
8
 71
3
 72
8
 73
4
 74
0
 40
0
 40
0
 40
0
 40
0
 40
1
 40
1
 40
1
 40
1
 10
25.659715
 20
9.214900
 30
0.0
 10
25.801308
 20
9.376124
 30
0.0
 10
25.996645
 20
9.456736
 30
0.0
 10
26.245727
 20
9.456736
 30
0.0
  0
LWPOLYLINE
  5
1c9
100
AcDbEntity
  8
Layer_1
 62
7
100
AcDbPolyline
 90
2
 70
1
 10
26.245727
 20
9.214900
 30
0.0
 10
26.245727
 20
9.214900
 30
0.0
  0
SPLINE
  5
1ca
100
AcDbEntity
  8
Layer_1
 62
7
100
AcDbSpline
 70
8
 71
3
 72
8
 73
4
 74
0
 40
0
 40
0
 40
0
 40
0
 40
1
 40
1
 40
1
 40
1
 10
23.033877
 20
32.365857
 30
0.0
 10
23.033882
 20
31.063082
 30
0.0
 10
21.977782
 20
30.006969
 30
0.0
 10
20.675007
 20
30.006959
 30
0.0
  0
SPLINE
  5
1cb
100
AcDbEntity
  8
Layer_1
 62
7
100
AcDbSpline
 70
8
 71
3
 72
8
 73
4
 74
0
 40
0
 40
0
 40
0
 40
0
 40
1
 40
1
 40
1
 40
1
 10
20.675007
 20
30.006959
 30
0.0
 10
20.049388
 20
30.006956
 30
0.0
 10
19.449392
 20
30.255482
 30
0.0
 10
19.007012
 20
30.697861
 30
0.0
  0
SPLINE
  5
1cc
100
AcDbEntity
  8
Layer_1
 62
7
100
AcDbSpline
 70
8
 71
3
 72
8
 73
4
 74
0
 40
0
 40
0
 40
0
 40
0
 40
1
 40
1
 40
1
 40
1
 10
19.007012
 20
30.697861
 30
0.0
 10
18.564632
 20
31.140241
 30
0.0
 10
18.316107
 20
31.740237
 30
0.0
 10
18.316109
 20
32.365857
 30
0.0
  0
SPLINE
  5
1cd
100
AcDbEntity
  8
Layer_1
 62
7
100
AcDbSpline
 70
8
 71
3
 72
8
 73
4
 74
0
 40
0
 40
0
 40
0
 40
0
 40
1
 40
1
 40
1
 40
1
 10
18.316109
 20
32.365857
 30
0.0
 10
18.316120
 20
33.668631
 30
0.0
 10
19.372233
 20
34.724731
 30
0.0
 10
20.675007
 20
34.724726
 30
0.0
  0
SPLINE
  5
1ce
100
AcDbEntity
  8
Layer_1
 62
7
100
AcDbSpline
 70
8
 71
3
 72
8
 73
4
 74
0
 40
0
 40
0
 40
0
 40
0
 40
1
 40
1
 40
1
 40
1
 10
20.675007
 20
34.724726
 30
0.0
 10
21.977771
 20
34.724716
 30
0.0
 10
23.033867
 20
33.668620
 30
0.0
 10
23.033877
 20
32.365857
 30
0.0
  0
LWPOLYLINE
  5
1cf
100
AcDbEntity
  8
Layer_1
 62
7
100
AcDbPolyline
 90
2
 70
1
 10
26.245727
 20
9.456736
 30
0.0
 10
26.245727
 20
9.456736
 30
0.0
  0
LWPOLYLINE
  5
1d0
100
AcDbEntity
  8
Layer_1
 62
7
100
AcDbPolyline
 90
2
 70
1
 10
23.033877
 20
32.365857
 30
0.0
 10
23.033877
 20
32.365857
 30
0.0
  0
ENDSEC
  0
SECTION
  2
OBJECTS
  0
DICTIONARY
  5
C
330
0
100
AcDbDictionary
  3
ACAD_GROUP
350
D
  3
ACAD_MLINESTYLE
350
17
  0
DICTIONARY
  5
D
330
C
100
AcDbDictionary
  0
DICTIONARY
  5
1A
330
C
100
AcDbDictionary
  0
DICTIONARY
  5
17
330
C
100
AcDbDictionary
  3
STANDARD
350
18
  0
DICTIONARY
  5
19
330
C
100
AcDbDictionary
  0
ENDSEC
  0
EOF
